<?xml version="1.0" encoding="utf-8"?>
<!-- Generator: Adobe Illustrator 25.4.1, SVG Export Plug-In . SVG Version: 6.00 Build 0)  -->
<svg version="1.1" id="Capa_1" xmlns="http://www.w3.org/2000/svg" xmlns:xlink="http://www.w3.org/1999/xlink" x="0px" y="0px"
	 viewBox="0 0 1366 768" style="enable-background:new 0 0 1366 768;" xml:space="preserve">
<style type="text/css">
	.st0{fill:#F9AA47;}
</style>
<g>
	<g>
		<path class="st0" d="M682.66,254.91c-71.47,0-129.41,57.94-129.41,129.41c0,71.47,57.94,129.41,129.41,129.41
			s129.41-57.94,129.41-129.41C812.07,312.85,754.13,254.91,682.66,254.91z M682.66,486.78c-56.59,0-102.46-45.87-102.46-102.46
			c0-56.59,45.87-102.46,102.46-102.46c56.59,0,102.46,45.87,102.46,102.46C785.12,440.91,739.25,486.78,682.66,486.78z"/>
	</g>
	<path class="st0" d="M724.62,329.95c-2.3,0-4.61,0.3-6.85,0.9l-34.98,9.38c-4.27,1.15-8.11,3.3-11.26,6.25
		c-1.95-0.45-3.96-0.69-6.02-0.69c-2.31,0-4.61,0.3-6.85,0.91l-34.98,9.38c-14.17,3.8-22.62,18.43-18.83,32.62
		c3.12,11.61,13.72,19.72,25.78,19.72c2.3,0,4.6-0.3,6.84-0.9l34.97-9.38c4.28-1.14,8.12-3.3,11.27-6.26
		c1.95,0.45,3.96,0.69,6.03,0.69c2.3,0,4.61-0.3,6.84-0.9l34.98-9.38c14.17-3.81,22.62-18.44,18.83-32.62
		C747.27,338.06,736.67,329.95,724.62,329.95z M672.96,351.72c1.21,0.43,2.37,0.97,3.47,1.6c-0.84,0.89-1.6,1.87-2.26,2.94
		c-1.08-0.58-2.23-1.05-3.42-1.41C671.4,353.74,672.14,352.69,672.96,351.72z M678.77,368.87c0.5,1.87,0.59,3.79,0.29,5.66
		c-1.18-1.45-2.07-3.16-2.58-5.05c-0.5-1.87-0.59-3.8-0.3-5.67C677.36,365.27,678.26,366.98,678.77,368.87z M672.22,360.49
		c-1.04,3.29-1.13,6.8-0.22,10.2c0.92,3.44,2.79,6.42,5.29,8.72c-0.64,1.07-1.41,2.04-2.29,2.88c-3.1-2.78-5.42-6.43-6.55-10.65
		c-1.12-4.16-0.98-8.48,0.35-12.5C670.01,359.43,671.16,359.89,672.22,360.49z M663.97,372.84c1.26,4.71,3.75,8.84,7.07,12.09
		c-0.63,0.27-1.28,0.5-1.95,0.68L634.12,395c-1.15,0.31-2.33,0.46-3.51,0.46c-6.2,0-11.65-4.17-13.25-10.13
		c-1.95-7.29,2.39-14.81,9.68-16.76l34.97-9.36c0.67-0.18,1.35-0.3,2.04-0.38C662.77,363.37,662.72,368.18,663.97,372.84z
		 M671.24,393.65l-34.98,9.38c-1.85,0.49-3.75,0.74-5.64,0.74c-9.96,0-18.72-6.7-21.29-16.29c-3.13-11.71,3.84-23.8,15.55-26.94
		l34.98-9.38c1.85-0.5,3.76-0.75,5.65-0.75c0.84,0,1.66,0.05,2.48,0.14c-0.47,0.67-0.92,1.36-1.34,2.09
		c-0.28,0.48-0.53,0.96-0.78,1.45c-0.11,0-0.23-0.01-0.34-0.01c-1.59,0-3.19,0.21-4.73,0.63l-34.97,9.36
		c-9.76,2.61-15.57,12.68-12.96,22.44c2.14,7.99,9.43,13.57,17.73,13.57c1.59,0,3.18-0.21,4.71-0.62l34.97-9.38
		c1.67-0.45,3.24-1.12,4.69-1.99c1.14,0.76,2.34,1.43,3.6,2.01C676.4,391.73,673.93,392.93,671.24,393.65z M682.29,386.63
		c-1.21-0.43-2.37-0.97-3.47-1.6c0.84-0.89,1.6-1.87,2.26-2.94c1.08,0.58,2.23,1.05,3.42,1.41
		C683.85,384.62,683.1,385.66,682.29,386.63z M683.03,377.87c1.04-3.29,1.13-6.8,0.22-10.19c-0.92-3.44-2.79-6.43-5.29-8.73
		c0.64-1.07,1.4-2.04,2.28-2.88c3.1,2.78,5.42,6.43,6.55,10.65c1.12,4.16,0.98,8.47-0.35,12.5
		C685.23,378.92,684.09,378.46,683.03,377.87z M691.27,365.52c-1.26-4.71-3.76-8.85-7.08-12.11c0.63-0.28,1.29-0.51,1.96-0.69
		l34.98-9.36c1.15-0.31,2.33-0.46,3.52-0.46c6.2,0,11.64,4.17,13.23,10.14c1.95,7.28-2.39,14.79-9.67,16.76l-34.97,9.36
		c-0.67,0.18-1.35,0.3-2.04,0.38C692.47,374.98,692.52,370.18,691.27,365.52z M730.36,377.81l-34.98,9.37
		c-1.85,0.49-3.75,0.75-5.64,0.75c-0.84,0-1.67-0.05-2.49-0.14c0.47-0.67,0.92-1.36,1.33-2.08c0.28-0.48,0.53-0.97,0.78-1.46
		c0.12,0,0.24,0.01,0.36,0.01c1.59,0,3.17-0.21,4.72-0.62l34.98-9.36c9.75-2.63,15.56-12.7,12.95-22.44
		c-2.14-7.99-9.42-13.57-17.71-13.57c-1.59,0-3.18,0.21-4.72,0.62l-34.98,9.36c-1.67,0.45-3.25,1.12-4.7,2
		c-1.14-0.76-2.34-1.42-3.59-2c2.17-1.61,4.65-2.81,7.33-3.53l34.98-9.38c1.85-0.49,3.75-0.74,5.65-0.74
		c9.95,0,18.71,6.7,21.29,16.29C749.04,362.59,742.06,374.67,730.36,377.81z"/>
	<path class="st0" d="M705.44,415.05h-4.1v-3.13c0-7.09-5.77-12.85-12.85-12.85c-7.09,0-12.85,5.76-12.85,12.85v3.13h-4.1
		c-1.28,0-2.32,1.04-2.32,2.32v21.94c0,3.15,2.56,5.72,5.71,5.72h26.91c3.27,0,5.93-2.66,5.93-5.94v-21.72
		C707.76,416.09,706.72,415.05,705.44,415.05z M696.7,415.05h-16.43v-3.13c0-4.53,3.68-8.21,8.21-8.21c4.53,0,8.21,3.68,8.21,8.21
		V415.05z"/>
</g>
</svg>
