<?xml version="1.0" encoding="utf-8"?>
<!-- Generator: Adobe Illustrator 25.4.1, SVG Export Plug-In . SVG Version: 6.00 Build 0)  -->
<svg version="1.1" id="Capa_1" xmlns="http://www.w3.org/2000/svg" xmlns:xlink="http://www.w3.org/1999/xlink" x="0px" y="0px"
	 viewBox="0 0 1366 768" style="enable-background:new 0 0 1366 768;" xml:space="preserve">
<style type="text/css">
	.st0{fill:#38B09F;}
</style>
<g>
	<path class="st0" d="M682.66,254.91c-71.47,0-129.41,57.94-129.41,129.41c0,71.47,57.94,129.41,129.41,129.41
		s129.41-57.94,129.41-129.41C812.07,312.85,754.13,254.91,682.66,254.91z M682.66,486.78c-56.59,0-102.46-45.87-102.46-102.46
		c0-56.59,45.87-102.46,102.46-102.46c56.59,0,102.46,45.87,102.46,102.46C785.12,440.91,739.25,486.78,682.66,486.78z"/>
</g>
<g>
	<path class="st0" d="M716.39,466.14c-1.33-5.1-2.66-10.2-3.99-15.29c-2.31-8.83-4.65-17.65-6.94-26.49
		c-1.9-7.29-3.75-14.58-5.64-21.87c-2.09-8.04-4.2-16.06-6.3-24.1c-2.23-8.52-4.44-17.05-6.68-25.56c-0.13-0.48-0.07-0.75,0.3-1.1
		c4.16-3.81,3.17-10.14-1.95-12.51c-2.47-1.14-5.99-0.57-7.93,1.28c-3.35,3.2-3.3,8.11,0.13,11.25c0.35,0.32,0.42,0.57,0.3,1.02
		c-1.67,6.38-3.32,12.78-4.98,19.16c-2.06,7.93-4.12,15.86-6.19,23.79c-2.59,9.91-5.21,19.81-7.8,29.72
		c-2.3,8.81-4.57,17.62-6.86,26.43c-1.56,6-3.14,12-4.7,18c-0.42,1.6,0.34,3.02,1.79,3.42c1.6,0.45,2.94-0.32,3.42-1.99
		c0.54-1.89,1.04-3.8,1.54-5.7c0.5-1.9,0.97-3.8,1.46-5.71c17.96,0,35.82,0,53.75,0c0.39,1.48,0.77,2.94,1.15,4.41
		c0.64,2.44,1.26,4.89,1.95,7.32c0.39,1.35,1.97,2.09,3.36,1.68c1.36-0.41,2.14-1.82,1.79-3.21
		C717.04,468.78,716.73,467.45,716.39,466.14z M695.39,407.26c1.61,6.15,3.19,12.19,4.77,18.24c-0.05,0.04-0.11,0.09-0.16,0.13
		c-5.09-3.58-10.17-7.16-15.35-10.8C688.24,412.29,691.76,409.82,695.39,407.26z M697.6,432.83c0.01,0.04,0.02,0.08,0.04,0.13
		c-1.43,0.71-2.87,1.42-4.3,2.12c-3.5,1.7-6.99,3.4-10.5,5.06c-0.31,0.15-0.8,0.16-1.1,0.02c-3.01-1.43-5.99-2.91-8.99-4.36
		c-1.67-0.81-3.36-1.6-5.04-2.4c-0.28-0.13-0.55-0.29-0.83-0.43c0.01-0.05,0.03-0.09,0.04-0.14
		C677.14,432.83,687.37,432.83,697.6,432.83z M666.96,427.32c0.92-0.67,1.67-1.24,2.44-1.79c3.96-2.79,7.93-5.57,11.88-8.38
		c0.62-0.44,1.1-0.62,1.81-0.11c4.61,3.31,9.25,6.57,13.88,9.85c0.14,0.1,0.26,0.23,0.49,0.43
		C687.27,427.32,677.22,427.32,666.96,427.32z M688.41,380.48c1.39,5.37,2.74,10.54,4.08,15.72c-0.04,0.02-0.08,0.04-0.12,0.06
		c-2.77-3.42-5.54-6.85-8.34-10.31C685.46,384.16,686.87,382.39,688.41,380.48z M682.25,388.12c3.25,4.02,6.47,7.99,9.79,12.1
		c-6.59,0-12.98,0-19.58,0C675.78,396.11,678.98,392.16,682.25,388.12z M682.25,383.77c-1.39-1.73-2.71-3.38-4.1-5.11
		c2.8,0,5.42,0,8.21,0C684.95,380.41,683.64,382.04,682.25,383.77z M682.14,357.25c0.07-0.01,0.13-0.01,0.2-0.02
		c1.37,5.27,2.74,10.54,4.13,15.89c-2.85,0-5.6,0-8.45,0C679.41,367.79,680.78,362.52,682.14,357.25z M676.08,380.51
		c1.51,1.86,2.92,3.59,4.4,5.42c-2.77,3.43-5.55,6.87-8.34,10.32c-0.04-0.03-0.08-0.07-0.13-0.1
		C673.35,391,674.69,385.85,676.08,380.51z M692.69,405.8c-3.55,2.5-6.96,4.91-10.44,7.35c-3.47-2.44-6.88-4.84-10.45-7.35
		C678.83,405.8,685.65,405.8,692.69,405.8z M669.11,407.26c3.61,2.54,7.13,5.02,10.75,7.56c-5.2,3.66-10.3,7.25-15.59,10.97
		C665.91,419.53,667.49,413.47,669.11,407.26z M662.2,433.75c5.66,2.75,11.21,5.45,16.91,8.23c-7.29,3.55-14.45,7.03-21.82,10.62
		C658.95,446.22,660.56,440.04,662.2,433.75z M704.28,454.43c-14.69,0-29.38,0-44.07,0c-0.02-0.05-0.04-0.09-0.06-0.14
		c1.24-0.62,2.48-1.26,3.73-1.86c5.48-2.67,10.99-5.3,16.44-8.03c1.29-0.64,2.31-0.79,3.67-0.1c5.27,2.68,10.6,5.22,15.91,7.81
		c1.48,0.72,2.96,1.43,4.44,2.14C704.32,454.31,704.3,454.37,704.28,454.43z M685.39,441.98c5.69-2.77,11.24-5.48,16.9-8.23
		c1.63,6.23,3.24,12.42,4.92,18.85C699.87,449.03,692.72,445.55,685.39,441.98z"/>
	<path class="st0" d="M662.96,387.81c0.4-1.49,0.77-2.99,1.22-4.46c0.18-0.59,0.08-0.84-0.48-1.17c-2.02-1.19-4.07-2.35-5.94-3.75
		c-5.57-4.16-9.79-9.45-12.62-15.81c-3.02-6.8-4.12-13.91-3.25-21.3c0.75-6.35,2.89-12.21,6.41-17.54
		c3.66-5.54,8.41-9.94,14.22-13.19c5.82-3.25,12.06-4.96,18.7-5.11c8.69-0.19,16.69,2.14,23.89,7.07c6,4.11,10.59,9.44,13.75,15.99
		c3.4,7.05,4.65,14.47,3.74,22.23c-1.03,8.8-4.61,16.45-10.62,22.95c-3.25,3.52-7.02,6.36-11.28,8.55c-0.22,0.11-0.5,0.49-0.46,0.67
		c0.39,1.63,0.85,3.24,1.31,4.91c17.26-7.69,31.2-28.43,25.47-52.62c-4.89-20.63-24.47-36.7-48.08-35.09
		c-22.02,1.5-41.42,19.38-42.7,43.6C635.1,365.15,648.82,381.79,662.96,387.81z"/>
	<path class="st0" d="M715.02,340.82c-2.5-15.61-15.85-27.34-31.44-27.93c-16.07-0.6-30.39,10.52-33.76,26.11
		c-3.33,15.42,4.6,29.8,16.47,36.15c0.43-1.69,0.82-3.31,1.28-4.92c0.13-0.46-0.02-0.63-0.35-0.9c-1.73-1.41-3.53-2.75-5.11-4.31
		c-3.11-3.06-5.2-6.8-6.45-10.97c-1.84-6.11-1.61-12.2,0.76-18.1c3.12-7.78,8.72-13.22,16.61-16.04c6.53-2.33,13.14-2.18,19.6,0.44
		c5.98,2.43,10.61,6.46,13.77,12.11c3.73,6.66,4.62,13.7,2.57,21.07c-1.5,5.41-4.41,9.95-8.71,13.57c-1.1,0.92-2.26,1.77-3.43,2.68
		c0.45,1.73,0.91,3.52,1.38,5.32C708.86,369.61,717.49,356.27,715.02,340.82z"/>
	<path class="st0" d="M693.64,355.66c-0.17,0.2-0.34,0.54-0.29,0.76c0.44,1.85,0.93,3.69,1.42,5.57c5.68-4.18,9.57-12.51,7.01-21.58
		c-2.53-8.98-11.06-15.06-20.51-14.63c-9.17,0.42-17.17,7.08-18.98,16.45c-1.66,8.59,2.48,16.24,7.46,19.75
		c0.39-1.54,0.68-3.09,1.18-4.57c0.33-1,0.07-1.67-0.54-2.43c-1.96-2.45-2.94-5.31-3-8.43c-0.1-4.7,1.63-8.63,5.19-11.71
		c3.42-2.97,7.43-4.09,11.88-3.44c4.25,0.62,7.61,2.77,10.05,6.31c2.32,3.37,3.1,7.08,2.37,11.1
		C696.41,351.37,695.29,353.64,693.64,355.66z"/>
</g>
</svg>
