<?xml version="1.0" encoding="utf-8"?>
<svg id="master-artboard" viewBox="0 0 865.0031127929688 741.1859130859375" version="1.1" xmlns="http://www.w3.org/2000/svg" x="0px" y="0px" style="enable-background:new 0 0 1400 980;" width="865.0031127929688px" height="741.1859130859375px" xmlns:xlink="http://www.w3.org/1999/xlink"><rect id="ee-background" x="0" y="0" width="865.0031127929688" height="741.1859130859375" style="fill: white; fill-opacity: 0; pointer-events: none;"/>


<g transform="matrix(1.1362318992614746, 0, 0, 1.1362318992614746, -318.1995544433594, -136.08399963378906)"><path d="M 282.70001220703125 547.5999755859375 L 660.7000122070312 763.5999755859375 L 1039.4000244140625 547.5999755859375 L 644.5 327 Z" class="st0" style="opacity: 0.71; fill: rgb(8, 3, 69);"/><path d="M 343.29998779296875 547.2999877929688 L 668.5 731.5 L 994.2999877929688 547.2999877929688 L 654.5 359.20001220703125 Z" class="st1" style="opacity: 0.79; fill: rgb(8, 3, 69);"/><path d="M 390.79998779296875 547 L 665.7000122070312 704.0999755859375 L 941.2000122070312 547 L 653.9000244140625 386.5 Z" class="st2" style="fill: rgb(8, 3, 69);"/><path class="st3" d="M680,682c-2.1,0-4.3-0.5-6-1.5L406.9,526.3c-1.8-1.1-2.9-2.5-2.9-4c0-1.3,0.8-2.5,2.2-3.3l159.4-92&#10;&#9;c2.8-1.6,7.6-1.5,10.8,0.4l267.1,154.2c1.8,1.1,2.9,2.5,2.9,4c0,1.3-0.8,2.5-2.2,3.3l-159.4,92C683.5,681.6,681.8,682,680,682z&#10;&#9; M407.9,524.6l267.1,154.2c2.6,1.5,6.7,1.7,8.9,0.4l159.4-92c0.6-0.3,1.2-0.9,1.2-1.7c0-0.8-0.7-1.7-1.9-2.4L575.4,428.9&#10;&#9;c-2.6-1.5-6.7-1.7-8.9-0.4l-159.4,92c-0.6,0.3-1.2,0.9-1.2,1.7C405.9,523,406.6,523.9,407.9,524.6L407.9,524.6z" style="fill: rgb(51, 255, 85);"/><g>
	<g>
		<g>
			<g>
				<g>
					
						<linearGradient id="SVGID_1_" gradientUnits="userSpaceOnUse" x1="491.3786" y1="531.7281" x2="841.5015" y2="531.7281" gradientTransform="matrix(-1 0 0 -1 1406.7101 862)">
						<stop offset="0" style="stop-color:#828BC5"/>
						<stop offset="0.3883" style="stop-color:#8282A6"/>
						<stop offset="0.6399" style="stop-color:#8583AF"/>
						<stop offset="1" style="stop-color:#9396C0"/>
					</linearGradient>
					<path class="st4" d="M565.3,352l37.9-225l-3-1.3l4.6-2.6l0,0c0.9-0.6,2.2-0.6,3.5,0.2l303.1,175c2.5,1.4,4.4,5.1,3.9,7.7&#10;&#9;&#9;&#9;&#9;&#9;&#9;l-38.2,226.8c-0.2,1.2-0.8,2-1.6,2.3l0,0l-4.5,2.6l-0.8-4.2l0.3,0.1L569.2,359.7C566.7,358.3,564.8,354.6,565.3,352z" style="fill: url('#SVGID_1_');"/>
					
						<linearGradient id="SVGID_2_" gradientUnits="userSpaceOnUse" x1="491.3896" y1="441.935" x2="551.5" y2="441.935" gradientTransform="matrix(-1 0 0 -1 1406.7101 862)">
						<stop offset="0" style="stop-color:#505DA6"/>
						<stop offset="0.1721" style="stop-color:#5561A9"/>
						<stop offset="0.375" style="stop-color:#636EB0"/>
						<stop offset="0.5935" style="stop-color:#7B83BC"/>
						<stop offset="0.8214" style="stop-color:#9CA0CE"/>
						<stop offset="1" style="stop-color:#BBBBDE"/>
					</linearGradient>
					<path class="st5" d="M909.6,304.5l5-2.2c0.6,1.3,0.8,2.6,0.6,3.8L877,532.9c-0.2,1.2-0.8,2-1.6,2.3l0,0l-4.5,2.6l-0.8-4.2&#10;&#9;&#9;&#9;&#9;&#9;&#9;l0.3,0.1l-15.2-8.8L909.6,304.5z" style="fill: url('#SVGID_2_');"/>
					<path class="st6" d="M564.5,362.5l303.1,175c2.3,1.3,4.3,0.6,4.8-1.8l38.2-226.8c0.4-2.6-1.5-6.3-3.9-7.7l-303.1-175&#10;&#9;&#9;&#9;&#9;&#9;&#9;c-2.3-1.3-4.3-0.6-4.8,1.8l-38.2,226.8C560.1,357.4,562,361,564.5,362.5z" style="fill: rgb(44, 38, 97);"/>
					<g class="st7" style="opacity: 0.51;">
						<path d="M 602.5 130.39999389648438 L 907 306.1000061035156 L 868.5 533.4000244140625 L 564.2000122070312 357.79998779296875 Z" class="st8" style="fill: rgb(69, 64, 146);"/>
					</g>
				</g>
				<g>
					
						<linearGradient id="SVGID_3_" gradientUnits="userSpaceOnUse" x1="538.2901" y1="343.97" x2="1032.77" y2="343.97" gradientTransform="matrix(-1 0 0 -1 1406.7101 862)">
						<stop offset="0" style="stop-color:#0E0C13"/>
						<stop offset="0.2938" style="stop-color:#8182A2"/>
						<stop offset="0.6399" style="stop-color:#8583AF"/>
						<stop offset="1" style="stop-color:#9396C0"/>
					</linearGradient>
					<path class="st9" d="M373.9,469.8l16.5,8.6l165.9-95.8c2.8-1.6,7.6-1.4,10.8,0.5l286,165.1c2.7-1.5,15.2-7.5,15.2-7.5l-6,9.8&#10;&#9;&#9;&#9;&#9;&#9;&#9;l0,0c-0.3,0.7-0.8,1.4-1.7,1.9L686,653.3c-2.8,1.6-7.6,1.4-10.8-0.5l-292.7-169c-1.3-0.8-2.1-1.7-2.5-2.6l0,0L373.9,469.8z" style="fill: url('#SVGID_3_');"/>
					
						<linearGradient id="SVGID_4_" gradientUnits="userSpaceOnUse" x1="318.6088" y1="357.505" x2="1047.2466" y2="357.505" gradientTransform="matrix(-1 0 0 -1 1406.7101 862)">
						<stop offset="0" style="stop-color:#0E0C13"/>
						<stop offset="0.2938" style="stop-color:#8182A2"/>
						<stop offset="0.6399" style="stop-color:#8583AF"/>
						<stop offset="1" style="stop-color:#9396C0"/>
					</linearGradient>
					<path class="st10" d="M376.5,472.5l300,173.2c3.3,1.9,8.3,2.1,11.1,0.5l179-103.4c2.8-1.6,2.5-4.5-0.8-6.4l-300-173.2&#10;&#9;&#9;&#9;&#9;&#9;&#9;c-3.3-1.9-8.3-2.1-11.1-0.5l-179,103.4C372.9,467.8,373.2,470.7,376.5,472.5z" style="fill: url('#SVGID_4_');"/>
					<path class="st2" d="M376.5,471.2l300,173.2c3.3,1.9,8.3,2.1,11.1,0.5l179-103.4c1-0.6,1.6-1.3,1.8-2.1&#10;&#9;&#9;&#9;&#9;&#9;&#9;c0.3,1.3-0.3,2.5-1.8,3.4l-179,103.4c-2.8,1.6-7.8,1.4-11.1-0.5l-300-173.2c-2.1-1.2-3-2.9-2.6-4.3&#10;&#9;&#9;&#9;&#9;&#9;&#9;C374.2,469.3,375,470.4,376.5,471.2z" style="fill: rgb(8, 3, 69);"/>
				</g>
			</g>
			<g class="st11" style="opacity: 0.15;">
				<g>
					<defs>
						<path d="M 907 306.1000061035156 L 602.5 130.39999389648438 L 564.2000122070312 357.79998779296875 L 868.5 533.4000244140625 Z" id="SVGID_5_"/>
					</defs>
					<clipPath id="SVGID_6_">
						<use style="overflow:visible;" xlink:href="#SVGID_5_"/>
					</clipPath>
					<g class="st12" style="clip-path: url('#SVGID_6_');">
						<g>
							
								<linearGradient id="SVGID_7_" gradientUnits="userSpaceOnUse" x1="348.1401" y1="452.795" x2="842.6301" y2="452.795" gradientTransform="matrix(-1 0 0 -1 1406.7101 862)">
								<stop offset="0" style="stop-color:#505DA6"/>
								<stop offset="0.1721" style="stop-color:#5561A9"/>
								<stop offset="0.375" style="stop-color:#636EB0"/>
								<stop offset="0.5935" style="stop-color:#7B83BC"/>
								<stop offset="0.8214" style="stop-color:#9CA0CE"/>
								<stop offset="1" style="stop-color:#BBBBDE"/>
							</linearGradient>
							<path class="st13" d="M564.1,361l16.5,8.6l165.8-95.8c2.8-1.6,7.6-1.4,10.8,0.5l286,165.1c2.7-1.5,15.2-7.5,15.2-7.5&#10;&#9;&#9;&#9;&#9;&#9;&#9;&#9;&#9;l-6.1,9.8l0,0c-0.3,0.7-0.8,1.4-1.7,1.9L876.1,544.5c-2.8,1.6-7.6,1.4-10.8-0.5l-292.7-169c-1.3-0.8-2.1-1.7-2.5-2.6l0,0&#10;&#9;&#9;&#9;&#9;&#9;&#9;&#9;&#9;L564.1,361z" style="fill: url('#SVGID_7_');"/>
							
								<linearGradient id="SVGID_8_" gradientUnits="userSpaceOnUse" x1="514.292" y1="466.325" x2="1009.0365" y2="466.325" gradientTransform="matrix(-1 0 0 -1 1406.7101 862)">
								<stop offset="0" style="stop-color:#0E0C13"/>
								<stop offset="0.2938" style="stop-color:#8182A2"/>
								<stop offset="0.6399" style="stop-color:#8583AF"/>
								<stop offset="1" style="stop-color:#9396C0"/>
							</linearGradient>
							<path class="st14" d="M566.6,363.7l300,173.2c3.3,1.9,8.3,2.1,11.1,0.5l179-103.4c2.8-1.6,2.5-4.5-0.8-6.4l-300-173.2&#10;&#9;&#9;&#9;&#9;&#9;&#9;&#9;&#9;c-3.3-1.9-8.3-2.1-11.1-0.5l-179,103.4C563,359,563.4,361.8,566.6,363.7z" style="fill: url('#SVGID_8_');"/>
							<path class="st15" d="M1055.9,427.6l-300-173.2c-2.1-1.2-4.9-1.7-7.4-1.5c1.8,0.1,3.7,0.6,5.2,1.5l300,173.2&#10;&#9;&#9;&#9;&#9;&#9;&#9;&#9;&#9;c3.3,1.9,3.6,4.8,0.8,6.4l-179,103.4c-1,0.6-2.3,0.9-3.7,1c2.2,0.2,4.3-0.2,5.9-1l179-103.4&#10;&#9;&#9;&#9;&#9;&#9;&#9;&#9;&#9;C1059.6,432.4,1059.2,429.5,1055.9,427.6z" style="fill: rgb(255, 255, 255);"/>
						</g>
						<g class="st16" style="opacity: 0.5;">
							<path class="st6" d="M723.8,333.9l-9.6-5.5c-0.8-0.5-2.1-0.4-2.9,0.1l-10.7,6.2c-0.8,0.5-0.9,1.3-0.1,1.7l9.6,5.5&#10;&#9;&#9;&#9;&#9;&#9;&#9;&#9;&#9;c0.8,0.5,2.1,0.4,2.9-0.1l10.7-6.2C724.5,335.1,724.5,334.4,723.8,333.9z" style="fill: rgb(44, 38, 97);"/>
							<path class="st6" d="M738.6,342.5l-9.6-5.5c-0.8-0.5-2.1-0.4-2.9,0.1l-10.7,6.2c-0.8,0.5-0.9,1.3-0.1,1.7l9.6,5.5&#10;&#9;&#9;&#9;&#9;&#9;&#9;&#9;&#9;c0.8,0.5,2.1,0.4,2.9-0.1l10.7-6.2C739.3,343.7,739.4,342.9,738.6,342.5z" style="fill: rgb(44, 38, 97);"/>
							<path class="st6" d="M753.5,351.1l-9.6-5.5c-0.8-0.5-2.1-0.4-2.9,0.1l-10.7,6.2c-0.8,0.5-0.9,1.3-0.1,1.7l9.6,5.5&#10;&#9;&#9;&#9;&#9;&#9;&#9;&#9;&#9;c0.8,0.5,2.1,0.4,2.9-0.1l10.7-6.2C754.2,352.3,754.3,351.5,753.5,351.1z" style="fill: rgb(44, 38, 97);"/>
							<path class="st6" d="M742.2,362.5l-9.6-5.5c-0.8-0.5-2.1-0.4-2.9,0.1l-9,5.2c-0.8,0.5-0.9,1.3-0.1,1.7l9.6,5.5&#10;&#9;&#9;&#9;&#9;&#9;&#9;&#9;&#9;c0.8,0.5,2.1,0.4,2.9-0.1l9-5.2C742.9,363.7,743,362.9,742.2,362.5z" style="fill: rgb(44, 38, 97);"/>
							<path class="st6" d="M757,371l-9.6-5.5c-0.8-0.5-2.1-0.4-2.9,0.1l-9,5.2c-0.8,0.5-0.9,1.3-0.1,1.7l9.6,5.5&#10;&#9;&#9;&#9;&#9;&#9;&#9;&#9;&#9;c0.8,0.5,2.1,0.4,2.9-0.1l9-5.2C757.7,372.3,757.8,371.5,757,371z" style="fill: rgb(44, 38, 97);"/>
							<path class="st6" d="M771.9,379.6l-9.6-5.5c-0.8-0.5-2.1-0.4-2.9,0.1l-9,5.2c-0.8,0.5-0.9,1.3-0.1,1.7l9.6,5.5&#10;&#9;&#9;&#9;&#9;&#9;&#9;&#9;&#9;c0.8,0.5,2.1,0.4,2.9-0.1l9-5.2C772.6,380.8,772.7,380.1,771.9,379.6z" style="fill: rgb(44, 38, 97);"/>
							<path class="st6" d="M786.7,388.2l-9.6-5.5c-0.8-0.5-2.1-0.4-2.9,0.1l-9,5.2c-0.8,0.5-0.9,1.3-0.1,1.7l9.6,5.5&#10;&#9;&#9;&#9;&#9;&#9;&#9;&#9;&#9;c0.8,0.5,2.1,0.4,2.9-0.1l9-5.2C787.4,389.4,787.5,388.6,786.7,388.2z" style="fill: rgb(44, 38, 97);"/>
							<path class="st6" d="M801.6,396.8l-9.6-5.5c-0.8-0.5-2.1-0.4-2.9,0.1l-9,5.2c-0.8,0.5-0.9,1.3-0.1,1.7l9.6,5.5&#10;&#9;&#9;&#9;&#9;&#9;&#9;&#9;&#9;c0.8,0.5,2.1,0.4,2.9-0.1l9-5.2C802.3,398,802.3,397.2,801.6,396.8z" style="fill: rgb(44, 38, 97);"/>
							<path class="st6" d="M816.4,405.3l-9.6-5.5c-0.8-0.5-2.1-0.4-2.9,0.1l-9,5.2c-0.8,0.5-0.9,1.3-0.1,1.7l9.6,5.5&#10;&#9;&#9;&#9;&#9;&#9;&#9;&#9;&#9;c0.8,0.5,2.1,0.4,2.9-0.1l9-5.2C817.1,406.5,817.2,405.8,816.4,405.3z" style="fill: rgb(44, 38, 97);"/>
							<path class="st6" d="M831.3,413.9l-9.6-5.5c-0.8-0.5-2.1-0.4-2.9,0.1l-9,5.2c-0.8,0.5-0.9,1.3-0.1,1.7l9.6,5.5&#10;&#9;&#9;&#9;&#9;&#9;&#9;&#9;&#9;c0.8,0.5,2.1,0.4,2.9-0.1l9-5.2C832,415.1,832,414.4,831.3,413.9z" style="fill: rgb(44, 38, 97);"/>
							<path class="st6" d="M846.1,422.5l-9.6-5.5c-0.8-0.5-2.1-0.4-2.9,0.1l-9,5.2c-0.8,0.5-0.9,1.3-0.1,1.7l9.6,5.5&#10;&#9;&#9;&#9;&#9;&#9;&#9;&#9;&#9;c0.8,0.5,2.1,0.4,2.9-0.1l9-5.2C846.8,423.7,846.9,422.9,846.1,422.5z" style="fill: rgb(44, 38, 97);"/>
							<path class="st6" d="M861,431.1l-9.6-5.5c-0.8-0.5-2.1-0.4-2.9,0.1l-9,5.2c-0.8,0.5-0.9,1.3-0.1,1.7l9.6,5.5&#10;&#9;&#9;&#9;&#9;&#9;&#9;&#9;&#9;c0.8,0.5,2.1,0.4,2.9-0.1l9-5.2C861.7,432.3,861.8,431.5,861,431.1z" style="fill: rgb(44, 38, 97);"/>
							<path class="st6" d="M875.8,439.6l-9.6-5.5c-0.8-0.5-2.1-0.4-2.9,0.1l-9,5.2c-0.8,0.5-0.9,1.3-0.1,1.7l9.6,5.5&#10;&#9;&#9;&#9;&#9;&#9;&#9;&#9;&#9;c0.8,0.5,2.1,0.4,2.9-0.1l9-5.2C876.5,440.8,876.6,440.1,875.8,439.6z" style="fill: rgb(44, 38, 97);"/>
							<path class="st6" d="M736,374.7l-9.6-5.5c-0.8-0.5-2.1-0.4-2.9,0.1l-9,5.2c-0.8,0.5-0.9,1.3-0.1,1.7l9.6,5.5&#10;&#9;&#9;&#9;&#9;&#9;&#9;&#9;&#9;c0.8,0.5,2.1,0.4,2.9-0.1l9-5.2C736.7,375.9,736.8,375.2,736,374.7z" style="fill: rgb(44, 38, 97);"/>
							<path class="st6" d="M720.9,366l-9.6-5.5c-0.8-0.5-2.1-0.4-2.9,0.1l-9,5.2c-0.8,0.5-0.9,1.3-0.1,1.7l9.6,5.5&#10;&#9;&#9;&#9;&#9;&#9;&#9;&#9;&#9;c0.8,0.5,2.1,0.4,2.9-0.1l9-5.2C721.6,367.2,721.7,366.5,720.9,366z" style="fill: rgb(44, 38, 97);"/>
							<path class="st6" d="M705.8,357.3l-20.7-12c-0.8-0.5-2.1-0.4-2.9,0.1l-9,5.2c-0.8,0.5-0.9,1.3-0.1,1.7l20.7,12&#10;&#9;&#9;&#9;&#9;&#9;&#9;&#9;&#9;c0.8,0.5,2.1,0.4,2.9-0.1l9-5.2C706.5,358.5,706.6,357.7,705.8,357.3z" style="fill: rgb(44, 38, 97);"/>
							<path class="st6" d="M688.3,363l-16.8-9.7c-0.8-0.5-2.1-0.4-2.9,0.1l-9,5.2c-0.8,0.5-0.9,1.3-0.1,1.7l16.8,9.7&#10;&#9;&#9;&#9;&#9;&#9;&#9;&#9;&#9;c0.8,0.5,2.1,0.4,2.9-0.1l9-5.2C689,364.2,689.1,363.4,688.3,363z" style="fill: rgb(44, 38, 97);"/>
							<path class="st6" d="M750.8,383.3l-9.6-5.5c-0.8-0.5-2.1-0.4-2.9,0.1l-9,5.2c-0.8,0.5-0.9,1.3-0.1,1.7l9.6,5.5&#10;&#9;&#9;&#9;&#9;&#9;&#9;&#9;&#9;c0.8,0.5,2.1,0.4,2.9-0.1l9-5.2C751.6,384.5,751.6,383.7,750.8,383.3z" style="fill: rgb(44, 38, 97);"/>
							<path class="st6" d="M765.7,391.9l-9.6-5.5c-0.8-0.5-2.1-0.4-2.9,0.1l-9,5.2c-0.8,0.5-0.9,1.3-0.1,1.7l9.6,5.5&#10;&#9;&#9;&#9;&#9;&#9;&#9;&#9;&#9;c0.8,0.5,2.1,0.4,2.9-0.1l9-5.2C766.4,393.1,766.5,392.3,765.7,391.9z" style="fill: rgb(44, 38, 97);"/>
							<path class="st6" d="M780.5,400.4l-9.6-5.5c-0.8-0.5-2.1-0.4-2.9,0.1l-9,5.2c-0.8,0.5-0.9,1.3-0.1,1.7l9.6,5.5&#10;&#9;&#9;&#9;&#9;&#9;&#9;&#9;&#9;c0.8,0.5,2.1,0.4,2.9-0.1l9-5.2C781.3,401.6,781.3,400.9,780.5,400.4z" style="fill: rgb(44, 38, 97);"/>
							<path class="st6" d="M795.4,409l-9.6-5.5c-0.8-0.5-2.1-0.4-2.9,0.1l-9,5.2c-0.8,0.5-0.9,1.3-0.1,1.7l9.6,5.5&#10;&#9;&#9;&#9;&#9;&#9;&#9;&#9;&#9;c0.8,0.5,2.1,0.4,2.9-0.1l9-5.2C796.1,410.2,796.2,409.5,795.4,409z" style="fill: rgb(44, 38, 97);"/>
							<path class="st6" d="M810.2,417.6l-9.6-5.5c-0.8-0.5-2.1-0.4-2.9,0.1l-9,5.2c-0.8,0.5-0.9,1.3-0.1,1.7l9.6,5.5&#10;&#9;&#9;&#9;&#9;&#9;&#9;&#9;&#9;c0.8,0.5,2.1,0.4,2.9-0.1l9-5.2C811,418.8,811,418,810.2,417.6z" style="fill: rgb(44, 38, 97);"/>
							<path class="st6" d="M825.1,426.1l-9.6-5.5c-0.8-0.5-2.1-0.4-2.9,0.1l-9,5.2c-0.8,0.5-0.9,1.3-0.1,1.7l9.6,5.5&#10;&#9;&#9;&#9;&#9;&#9;&#9;&#9;&#9;c0.8,0.5,2.1,0.4,2.9-0.1l9-5.2C825.8,427.4,825.9,426.6,825.1,426.1z" style="fill: rgb(44, 38, 97);"/>
							<path class="st6" d="M839.9,434.7l-9.6-5.5c-0.8-0.5-2.1-0.4-2.9,0.1l-9,5.2c-0.8,0.5-0.9,1.3-0.1,1.7l9.6,5.5&#10;&#9;&#9;&#9;&#9;&#9;&#9;&#9;&#9;c0.8,0.5,2.1,0.4,2.9-0.1l9-5.2C840.7,435.9,840.7,435.2,839.9,434.7z" style="fill: rgb(44, 38, 97);"/>
							<path class="st6" d="M854.8,443.3l-9.6-5.5c-0.8-0.5-2.1-0.4-2.9,0.1l-9,5.2c-0.8,0.5-0.9,1.3-0.1,1.7l9.6,5.5&#10;&#9;&#9;&#9;&#9;&#9;&#9;&#9;&#9;c0.8,0.5,2.1,0.4,2.9-0.1l9-5.2C855.5,444.5,855.6,443.8,854.8,443.3z" style="fill: rgb(44, 38, 97);"/>
							<path class="st6" d="M869.6,451.9l-9.6-5.5c-0.8-0.5-2.1-0.4-2.9,0.1l-9,5.2c-0.8,0.5-0.9,1.3-0.1,1.7l9.6,5.5&#10;&#9;&#9;&#9;&#9;&#9;&#9;&#9;&#9;c0.8,0.5,2.1,0.4,2.9-0.1l9-5.2C870.4,453.1,870.4,452.3,869.6,451.9z" style="fill: rgb(44, 38, 97);"/>
							<path class="st6" d="M896,467.1l-21-12.1c-0.8-0.5-2.1-0.4-2.9,0.1l-9,5.2c-0.8,0.5-0.9,1.3-0.1,1.7l21,12.1&#10;&#9;&#9;&#9;&#9;&#9;&#9;&#9;&#9;c0.8,0.5,2.1,0.4,2.9-0.1l9-5.2C896.8,468.3,896.8,467.6,896,467.1z" style="fill: rgb(44, 38, 97);"/>
							<path class="st6" d="M868.8,483l-17.7-10.2c-0.8-0.5-2.1-0.4-2.9,0.1l-9,5.2c-0.8,0.5-0.9,1.3-0.1,1.7l17.7,10.2&#10;&#9;&#9;&#9;&#9;&#9;&#9;&#9;&#9;c0.8,0.5,2.1,0.4,2.9-0.1l9-5.2C869.5,484.2,869.6,483.5,868.8,483z" style="fill: rgb(44, 38, 97);"/>
							<path class="st6" d="M748.8,397.9l-9.6-5.5c-0.8-0.5-2.1-0.4-2.9,0.1l-9,5.2c-0.8,0.5-0.9,1.3-0.1,1.7l9.6,5.5&#10;&#9;&#9;&#9;&#9;&#9;&#9;&#9;&#9;c0.8,0.5,2.1,0.4,2.9-0.1l9-5.2C749.5,399.1,749.5,398.4,748.8,397.9z" style="fill: rgb(44, 38, 97);"/>
							<path class="st6" d="M733.6,389.1l-9.6-5.5c-0.8-0.5-2.1-0.4-2.9,0.1l-9,5.2c-0.8,0.5-0.9,1.3-0.1,1.7l9.6,5.5&#10;&#9;&#9;&#9;&#9;&#9;&#9;&#9;&#9;c0.8,0.5,2.1,0.4,2.9-0.1l9-5.2C734.3,390.3,734.3,389.6,733.6,389.1z" style="fill: rgb(44, 38, 97);"/>
							<path class="st6" d="M718.3,380.3l-9.6-5.5c-0.8-0.5-2.1-0.4-2.9,0.1l-9,5.2c-0.8,0.5-0.9,1.3-0.1,1.7l9.6,5.5&#10;&#9;&#9;&#9;&#9;&#9;&#9;&#9;&#9;c0.8,0.5,2.1,0.4,2.9-0.1l9-5.2C719,381.5,719.1,380.8,718.3,380.3z" style="fill: rgb(44, 38, 97);"/>
							<path class="st6" d="M703.1,371.5l-9.6-5.5c-0.8-0.5-2.1-0.4-2.9,0.1l-9,5.2c-0.8,0.5-0.9,1.3-0.1,1.7l9.6,5.5&#10;&#9;&#9;&#9;&#9;&#9;&#9;&#9;&#9;c0.8,0.5,2.1,0.4,2.9-0.1l9-5.2C703.8,372.8,703.9,372,703.1,371.5z" style="fill: rgb(44, 38, 97);"/>
							<path class="st6" d="M763.6,406.5l-9.6-5.5c-0.8-0.5-2.1-0.4-2.9,0.1l-9,5.2c-0.8,0.5-0.9,1.3-0.1,1.7l9.6,5.5&#10;&#9;&#9;&#9;&#9;&#9;&#9;&#9;&#9;c0.8,0.5,2.1,0.4,2.9-0.1l9-5.2C764.3,407.7,764.4,406.9,763.6,406.5z" style="fill: rgb(44, 38, 97);"/>
							<path class="st6" d="M778.5,415l-9.6-5.5c-0.8-0.5-2.1-0.4-2.9,0.1l-9,5.2c-0.8,0.5-0.9,1.3-0.1,1.7l9.6,5.5&#10;&#9;&#9;&#9;&#9;&#9;&#9;&#9;&#9;c0.8,0.5,2.1,0.4,2.9-0.1l9-5.2C779.2,416.3,779.3,415.5,778.5,415z" style="fill: rgb(44, 38, 97);"/>
							<path class="st6" d="M793.3,423.6l-9.6-5.5c-0.8-0.5-2.1-0.4-2.9,0.1l-9,5.2c-0.8,0.5-0.9,1.3-0.1,1.7l9.6,5.5&#10;&#9;&#9;&#9;&#9;&#9;&#9;&#9;&#9;c0.8,0.5,2.1,0.4,2.9-0.1l9-5.2C794,424.8,794.1,424.1,793.3,423.6z" style="fill: rgb(44, 38, 97);"/>
							<path class="st6" d="M808.2,432.2l-9.6-5.5c-0.8-0.5-2.1-0.4-2.9,0.1l-9,5.2c-0.8,0.5-0.9,1.3-0.1,1.7l9.6,5.5&#10;&#9;&#9;&#9;&#9;&#9;&#9;&#9;&#9;c0.8,0.5,2.1,0.4,2.9-0.1l9-5.2C808.9,433.4,809,432.6,808.2,432.2z" style="fill: rgb(44, 38, 97);"/>
							<path class="st6" d="M823,440.8l-9.6-5.5c-0.8-0.5-2.1-0.4-2.9,0.1l-9,5.2c-0.8,0.5-0.9,1.3-0.1,1.7l9.6,5.5&#10;&#9;&#9;&#9;&#9;&#9;&#9;&#9;&#9;c0.8,0.5,2.1,0.4,2.9-0.1l9-5.2C823.8,442,823.8,441.2,823,440.8z" style="fill: rgb(44, 38, 97);"/>
							<path class="st6" d="M837.9,449.4l-9.6-5.5c-0.8-0.5-2.1-0.4-2.9,0.1l-9,5.2c-0.8,0.5-0.9,1.3-0.1,1.7l9.6,5.5&#10;&#9;&#9;&#9;&#9;&#9;&#9;&#9;&#9;c0.8,0.5,2.1,0.4,2.9-0.1l9-5.2C838.6,450.5,838.7,449.8,837.9,449.4z" style="fill: rgb(44, 38, 97);"/>
							<path class="st6" d="M852.7,457.9l-9.6-5.5c-0.8-0.5-2.1-0.4-2.9,0.1l-9,5.2c-0.8,0.5-0.9,1.3-0.1,1.7l9.6,5.5&#10;&#9;&#9;&#9;&#9;&#9;&#9;&#9;&#9;c0.8,0.5,2.1,0.4,2.9-0.1l9-5.2C853.5,459.1,853.5,458.4,852.7,457.9z" style="fill: rgb(44, 38, 97);"/>
							<path class="st6" d="M867.6,466.5L858,461c-0.8-0.5-2.1-0.4-2.9,0.1l-9,5.2c-0.8,0.5-0.9,1.3-0.1,1.7l9.6,5.5&#10;&#9;&#9;&#9;&#9;&#9;&#9;&#9;&#9;c0.8,0.5,2.1,0.4,2.9-0.1l9-5.2C868.3,467.7,868.3,466.9,867.6,466.5z" style="fill: rgb(44, 38, 97);"/>
							<path class="st6" d="M882.4,475.1l-9.6-5.5c-0.8-0.5-2.1-0.4-2.9,0.1l-9,5.2c-0.8,0.5-0.9,1.3-0.1,1.7l9.6,5.5&#10;&#9;&#9;&#9;&#9;&#9;&#9;&#9;&#9;c0.8,0.5,2.1,0.4,2.9-0.1l9-5.2C883.2,476.3,883.2,475.5,882.4,475.1z" style="fill: rgb(44, 38, 97);"/>
							<path class="st6" d="M712.9,393l-9.6-5.5c-0.8-0.5-2.1-0.4-2.9,0.1l-9,5.2c-0.8,0.5-0.9,1.3-0.1,1.7l9.6,5.5&#10;&#9;&#9;&#9;&#9;&#9;&#9;&#9;&#9;c0.8,0.5,2.1,0.4,2.9-0.1l9-5.2C713.6,394.2,713.7,393.4,712.9,393z" style="fill: rgb(44, 38, 97);"/>
							<path class="st6" d="M698.1,384.5l-9.6-5.5c-0.8-0.5-2.1-0.4-2.9,0.1l-9,5.2c-0.8,0.5-0.9,1.3-0.1,1.7l9.6,5.5&#10;&#9;&#9;&#9;&#9;&#9;&#9;&#9;&#9;c0.8,0.5,2.1,0.4,2.9-0.1l9-5.2C698.8,385.7,698.9,384.9,698.1,384.5z" style="fill: rgb(44, 38, 97);"/>
							<path class="st6" d="M683.3,375.9l-9.6-5.5c-0.8-0.5-2.1-0.4-2.9,0.1l-9,5.2c-0.8,0.5-0.9,1.3-0.1,1.7l9.6,5.5&#10;&#9;&#9;&#9;&#9;&#9;&#9;&#9;&#9;c0.8,0.5,2.1,0.4,2.9-0.1l9-5.2C684,377.1,684.1,376.4,683.3,375.9z" style="fill: rgb(44, 38, 97);"/>
							<path class="st6" d="M668.6,367.4l-9.6-5.5c-0.8-0.5-2.1-0.4-2.9,0.1l-9,5.2c-0.8,0.5-0.9,1.3-0.1,1.7l9.6,5.5&#10;&#9;&#9;&#9;&#9;&#9;&#9;&#9;&#9;c0.8,0.5,2.1,0.4,2.9-0.1l9-5.2C669.3,368.6,669.3,367.9,668.6,367.4z" style="fill: rgb(44, 38, 97);"/>
							<path class="st6" d="M654.3,375.8l-9.6-5.5c-0.8-0.5-2.1-0.4-2.9,0.1l-3,1.7c-0.8,0.5-0.9,1.3-0.1,1.7l9.6,5.5&#10;&#9;&#9;&#9;&#9;&#9;&#9;&#9;&#9;c0.8,0.5,2.1,0.4,2.9-0.1l3-1.7C655,377,655,376.2,654.3,375.8z" style="fill: rgb(44, 38, 97);"/>
							<path class="st6" d="M673.5,386.9l-9.6-5.5c-0.8-0.5-2.1-0.4-2.9,0.1l-3,1.7c-0.8,0.5-0.9,1.3-0.1,1.7l9.6,5.5&#10;&#9;&#9;&#9;&#9;&#9;&#9;&#9;&#9;c0.8,0.5,2.1,0.4,2.9-0.1l3-1.7C674.3,388.1,674.3,387.3,673.5,386.9z" style="fill: rgb(44, 38, 97);"/>
							<path class="st6" d="M688.3,395.4l-9.6-5.5c-0.8-0.5-2.1-0.4-2.9,0.1l-3,1.7c-0.8,0.5-0.9,1.3-0.1,1.7l9.6,5.5&#10;&#9;&#9;&#9;&#9;&#9;&#9;&#9;&#9;c0.8,0.5,2.1,0.4,2.9-0.1l3-1.7C689,396.6,689,395.8,688.3,395.4z" style="fill: rgb(44, 38, 97);"/>
							<path class="st6" d="M703,403.9l-9.6-5.5c-0.8-0.5-2.1-0.4-2.9,0.1l-3,1.7c-0.8,0.5-0.9,1.3-0.1,1.7l9.6,5.5&#10;&#9;&#9;&#9;&#9;&#9;&#9;&#9;&#9;c0.8,0.5,2.1,0.4,2.9-0.1l3-1.7C703.7,405.1,703.7,404.3,703,403.9z" style="fill: rgb(44, 38, 97);"/>
							<path class="st6" d="M717.7,412.4l-9.6-5.5c-0.8-0.5-2.1-0.4-2.9,0.1l-3,1.7c-0.8,0.5-0.9,1.3-0.1,1.7l9.6,5.5&#10;&#9;&#9;&#9;&#9;&#9;&#9;&#9;&#9;c0.8,0.5,2.1,0.4,2.9-0.1l3-1.7C718.4,413.6,718.5,412.8,717.7,412.4z" style="fill: rgb(44, 38, 97);"/>
							<path class="st6" d="M799.8,459.8l-9.6-5.5c-0.8-0.5-2.1-0.4-2.9,0.1l-3,1.7c-0.8,0.5-0.9,1.3-0.1,1.7l9.6,5.5&#10;&#9;&#9;&#9;&#9;&#9;&#9;&#9;&#9;c0.8,0.5,2.1,0.4,2.9-0.1l3-1.7C800.5,461,800.6,460.3,799.8,459.8z" style="fill: rgb(44, 38, 97);"/>
							<path class="st6" d="M814.5,468.3l-9.6-5.5c-0.8-0.5-2.1-0.4-2.9,0.1l-3,1.7c-0.8,0.5-0.9,1.3-0.1,1.7l9.6,5.5&#10;&#9;&#9;&#9;&#9;&#9;&#9;&#9;&#9;c0.8,0.5,2.1,0.4,2.9-0.1l3-1.7C815.3,469.5,815.3,468.8,814.5,468.3z" style="fill: rgb(44, 38, 97);"/>
							<path class="st6" d="M829.3,476.8l-9.6-5.5c-0.8-0.5-2.1-0.4-2.9,0.1l-3,1.7c-0.8,0.5-0.9,1.3-0.1,1.7l9.6,5.5&#10;&#9;&#9;&#9;&#9;&#9;&#9;&#9;&#9;c0.8,0.5,2.1,0.4,2.9-0.1l3-1.7C830,478,830,477.3,829.3,476.8z" style="fill: rgb(44, 38, 97);"/>
							<path class="st6" d="M844,485.3l-9.6-5.5c-0.8-0.5-2.1-0.4-2.9,0.1l-3,1.7c-0.8,0.5-0.9,1.3-0.1,1.7l9.6,5.5&#10;&#9;&#9;&#9;&#9;&#9;&#9;&#9;&#9;c0.8,0.5,2.1,0.4,2.9-0.1l3-1.7C844.7,486.5,844.8,485.7,844,485.3z" style="fill: rgb(44, 38, 97);"/>
							<path class="st6" d="M727.7,401.6l-9.6-5.5c-0.8-0.5-2.1-0.4-2.9,0.1l-9,5.2c-0.8,0.5-0.9,1.3-0.1,1.7l9.6,5.5&#10;&#9;&#9;&#9;&#9;&#9;&#9;&#9;&#9;c0.8,0.5,2.1,0.4,2.9-0.1l9-5.2C728.5,402.8,728.5,402,727.7,401.6z" style="fill: rgb(44, 38, 97);"/>
							<path class="st6" d="M742.6,410.1l-9.6-5.5c-0.8-0.5-2.1-0.4-2.9,0.1l-9,5.2c-0.8,0.5-0.9,1.3-0.1,1.7l9.6,5.5&#10;&#9;&#9;&#9;&#9;&#9;&#9;&#9;&#9;c0.8,0.5,2.1,0.4,2.9-0.1l9-5.2C743.3,411.4,743.4,410.6,742.6,410.1z" style="fill: rgb(44, 38, 97);"/>
							<path class="st6" d="M757.4,418.7l-9.6-5.5c-0.8-0.5-2.1-0.4-2.9,0.1l-9,5.2c-0.8,0.5-0.9,1.3-0.1,1.7l9.6,5.5&#10;&#9;&#9;&#9;&#9;&#9;&#9;&#9;&#9;c0.8,0.5,2.1,0.4,2.9-0.1l9-5.2C758.2,419.9,758.2,419.2,757.4,418.7z" style="fill: rgb(44, 38, 97);"/>
							<path class="st6" d="M772.3,427.3l-9.6-5.5c-0.8-0.5-2.1-0.4-2.9,0.1l-9,5.2c-0.8,0.5-0.9,1.3-0.1,1.7l9.6,5.5&#10;&#9;&#9;&#9;&#9;&#9;&#9;&#9;&#9;c0.8,0.5,2.1,0.4,2.9-0.1l9-5.2C773,428.5,773.1,427.7,772.3,427.3z" style="fill: rgb(44, 38, 97);"/>
							<path class="st6" d="M787.1,435.9l-9.6-5.5c-0.8-0.5-2.1-0.4-2.9,0.1l-9,5.2c-0.8,0.5-0.9,1.3-0.1,1.7l9.6,5.5&#10;&#9;&#9;&#9;&#9;&#9;&#9;&#9;&#9;c0.8,0.5,2.1,0.4,2.9-0.1l9-5.2C787.9,437.1,787.9,436.3,787.1,435.9z" style="fill: rgb(44, 38, 97);"/>
							<path class="st6" d="M802,444.4l-9.6-5.5c-0.8-0.5-2.1-0.4-2.9,0.1l-9,5.2c-0.8,0.5-0.9,1.3-0.1,1.7l9.6,5.5&#10;&#9;&#9;&#9;&#9;&#9;&#9;&#9;&#9;c0.8,0.5,2.1,0.4,2.9-0.1l9-5.2C802.7,445.6,802.8,444.9,802,444.4z" style="fill: rgb(44, 38, 97);"/>
							<path class="st6" d="M816.8,453l-9.6-5.5c-0.8-0.5-2.1-0.4-2.9,0.1l-9,5.2c-0.8,0.5-0.9,1.3-0.1,1.7l9.6,5.5&#10;&#9;&#9;&#9;&#9;&#9;&#9;&#9;&#9;c0.8,0.5,2.1,0.4,2.9-0.1l9-5.2C817.6,454.2,817.6,453.5,816.8,453z" style="fill: rgb(44, 38, 97);"/>
							<path class="st6" d="M831.7,461.6l-9.6-5.5c-0.8-0.5-2.1-0.4-2.9,0.1l-9,5.2c-0.8,0.5-0.9,1.3-0.1,1.7l9.6,5.5&#10;&#9;&#9;&#9;&#9;&#9;&#9;&#9;&#9;c0.8,0.5,2.1,0.4,2.9-0.1l9-5.2C832.4,462.8,832.5,462,831.7,461.6z" style="fill: rgb(44, 38, 97);"/>
							<path class="st6" d="M846.5,470.2l-9.6-5.5c-0.8-0.5-2.1-0.4-2.9,0.1l-9,5.2c-0.8,0.5-0.9,1.3-0.1,1.7l9.6,5.5&#10;&#9;&#9;&#9;&#9;&#9;&#9;&#9;&#9;c0.8,0.5,2.1,0.4,2.9-0.1l9-5.2C847.3,471.4,847.3,470.6,846.5,470.2z" style="fill: rgb(44, 38, 97);"/>
							<path class="st6" d="M727,353.7l-28.3-16.4c-0.8-0.5-2.1-0.4-2.9,0.1l-9,5.2c-0.8,0.5-0.9,1.3-0.1,1.7l28.3,16.4&#10;&#9;&#9;&#9;&#9;&#9;&#9;&#9;&#9;c0.8,0.5,2.1,0.4,2.9-0.1l9-5.2C727.8,354.9,727.8,354.2,727,353.7z" style="fill: rgb(44, 38, 97);"/>
							<path class="st6" d="M909.5,459.1l-28.3-16.4c-0.8-0.5-2.1-0.4-2.9,0.1l-9,5.2c-0.8,0.5-0.9,1.3-0.1,1.7l28.3,16.4&#10;&#9;&#9;&#9;&#9;&#9;&#9;&#9;&#9;c0.8,0.5,2.1,0.4,2.9-0.1l9-5.2C910.2,460.3,910.3,459.5,909.5,459.1z" style="fill: rgb(44, 38, 97);"/>
							<path class="st6" d="M881.9,425.2l-9.6-5.5c-0.8-0.5-2.1-0.4-2.9,0.1l-10.7,6.3c-0.8,0.5-0.9,1.3-0.1,1.7l9.6,5.5&#10;&#9;&#9;&#9;&#9;&#9;&#9;&#9;&#9;c0.8,0.5,2.1,0.4,2.9-0.1l10.7-6.2C882.7,426.4,882.7,425.7,881.9,425.2z" style="fill: rgb(44, 38, 97);"/>
							<path class="st6" d="M774.1,363l-15.4-8.9c-0.8-0.5-2.1-0.4-2.9,0.1l-10.7,6.2c-0.8,0.5-0.9,1.3-0.1,1.7l15.4,8.9&#10;&#9;&#9;&#9;&#9;&#9;&#9;&#9;&#9;c0.8,0.5,2.1,0.4,2.9-0.1l10.7-6.2C774.8,364.2,774.9,363.4,774.1,363z" style="fill: rgb(44, 38, 97);"/>
							<path class="st6" d="M867.6,417l-15.4-8.9c-0.8-0.5-2.1-0.4-2.9,0.1l-10.7,6.2c-0.8,0.5-0.9,1.3-0.1,1.7l15.4,8.9&#10;&#9;&#9;&#9;&#9;&#9;&#9;&#9;&#9;c0.8,0.5,2.1,0.4,2.9-0.1l10.7-6.2C868.3,418.2,868.4,417.4,867.6,417z" style="fill: rgb(44, 38, 97);"/>
							<path class="st6" d="M795.5,375.3l-15.4-8.9c-0.8-0.5-2.1-0.4-2.9,0.1l-10.7,6.2c-0.8,0.5-0.9,1.3-0.1,1.7l15.4,8.9&#10;&#9;&#9;&#9;&#9;&#9;&#9;&#9;&#9;c0.8,0.5,2.1,0.4,2.9-0.1l10.7-6.2C796.2,376.5,796.3,375.8,795.5,375.3z" style="fill: rgb(44, 38, 97);"/>
							<path class="st6" d="M766.5,374.5l66.9,38.6c0.8,0.5,2.1,0.5,2.9,0l10.9-6.4c0.8-0.5,0.7-1.2-0.1-1.7l-66.9-38.6L766.5,374.5&#10;&#9;&#9;&#9;&#9;&#9;&#9;&#9;&#9;z" style="fill: rgb(44, 38, 97);"/>
							<path class="st6" d="M909.3,449l10.7,6.2c0.6,0.4,1.7,0.3,2.4-0.1l4.4-2.5c0.7-0.4,0.7-1,0.1-1.4l-10.7-6.2&#10;&#9;&#9;&#9;&#9;&#9;&#9;&#9;&#9;c-0.6-0.4-1.7-0.3-2.4,0.1l-4.4,2.5C908.7,448,908.7,448.6,909.3,449z" style="fill: rgb(44, 38, 97);"/>
							<path class="st6" d="M894.3,440.3l10.7,6.2c0.6,0.4,1.7,0.3,2.4-0.1l4.4-2.5c0.7-0.4,0.7-1,0.1-1.4l-10.7-6.2&#10;&#9;&#9;&#9;&#9;&#9;&#9;&#9;&#9;c-0.6-0.4-1.7-0.3-2.4,0.1l-4.4,2.5C893.7,439.4,893.7,440,894.3,440.3z" style="fill: rgb(44, 38, 97);"/>
							<path class="st6" d="M879.5,431.8l10.7,6.2c0.6,0.4,1.7,0.3,2.4-0.1l4.4-2.5c0.7-0.4,0.7-1,0.1-1.4l-10.7-6.2&#10;&#9;&#9;&#9;&#9;&#9;&#9;&#9;&#9;c-0.6-0.4-1.7-0.3-2.4,0.1l-4.4,2.5C878.9,430.8,878.8,431.4,879.5,431.8z" style="fill: rgb(44, 38, 97);"/>
							<path class="st6" d="M886.6,444.9l10.7,6.2c0.6,0.4,1.7,0.3,2.4-0.1l4.4-2.5c0.7-0.4,0.7-1,0.1-1.4l-10.7-6.2&#10;&#9;&#9;&#9;&#9;&#9;&#9;&#9;&#9;c-0.6-0.4-1.7-0.3-2.4,0.1l-4.4,2.5C886,443.9,886,444.5,886.6,444.9z" style="fill: rgb(44, 38, 97);"/>
						</g>
					</g>
				</g>
			</g>
		</g>
		<g class="st17" style="opacity: 0.8;">
			<path class="st6" d="M514.5,453.4l-9.5-5.5c-0.8-0.4-0.7-1.2,0.2-1.7l11.2-6.5c0.9-0.5,2.2-0.6,3-0.1l9.5,5.5&#10;&#9;&#9;&#9;&#9;c0.8,0.4,0.7,1.2-0.2,1.7l-11.2,6.5C516.6,453.8,515.3,453.8,514.5,453.4z" style="fill: rgb(44, 38, 97);"/>
			<path class="st6" d="M529.2,461.9l-9.5-5.5c-0.8-0.4-0.7-1.2,0.2-1.7l11.2-6.5c0.9-0.5,2.2-0.6,3-0.1l9.5,5.5&#10;&#9;&#9;&#9;&#9;c0.8,0.4,0.7,1.2-0.2,1.7l-11.2,6.5C531.3,462.3,530,462.3,529.2,461.9z" style="fill: rgb(44, 38, 97);"/>
			<path class="st6" d="M543.9,470.4l-9.5-5.5c-0.8-0.4-0.7-1.2,0.2-1.7l11.2-6.5c0.9-0.5,2.2-0.6,3-0.1l9.5,5.5&#10;&#9;&#9;&#9;&#9;c0.8,0.4,0.7,1.2-0.2,1.7l-11.2,6.5C546,470.7,544.7,470.8,543.9,470.4z" style="fill: rgb(44, 38, 97);"/>
			<path class="st6" d="M564.3,463.3l-9.5-5.5c-0.8-0.4-0.7-1.2,0.2-1.7l9.4-5.5c0.9-0.5,2.2-0.6,3-0.1l9.5,5.5&#10;&#9;&#9;&#9;&#9;c0.8,0.4,0.7,1.2-0.2,1.7l-9.4,5.5C566.3,463.7,565,463.8,564.3,463.3z" style="fill: rgb(44, 38, 97);"/>
			<path class="st6" d="M579,471.8l-9.5-5.5c-0.8-0.4-0.7-1.2,0.2-1.7l9.4-5.5c0.9-0.5,2.2-0.6,3-0.1l9.5,5.5&#10;&#9;&#9;&#9;&#9;c0.8,0.4,0.7,1.2-0.2,1.7l-9.4,5.5C581,472.2,579.7,472.3,579,471.8z" style="fill: rgb(44, 38, 97);"/>
			<path class="st6" d="M593.7,480.3l-9.5-5.5c-0.8-0.4-0.7-1.2,0.2-1.7l9.4-5.5c0.9-0.5,2.2-0.6,3-0.1l9.5,5.5&#10;&#9;&#9;&#9;&#9;c0.8,0.4,0.7,1.2-0.2,1.7l-9.4,5.5C595.8,480.7,594.4,480.8,593.7,480.3z" style="fill: rgb(44, 38, 97);"/>
			<path class="st6" d="M608.4,488.8l-9.5-5.5c-0.8-0.4-0.7-1.2,0.2-1.7l9.4-5.5c0.9-0.5,2.2-0.6,3-0.1l9.5,5.5&#10;&#9;&#9;&#9;&#9;c0.8,0.4,0.7,1.2-0.2,1.7l-9.4,5.5C610.5,489.2,609.1,489.3,608.4,488.8z" style="fill: rgb(44, 38, 97);"/>
			<path class="st6" d="M623.1,497.3l-9.5-5.5c-0.8-0.4-0.7-1.2,0.2-1.7l9.4-5.5c0.9-0.5,2.2-0.6,3-0.1l9.5,5.5&#10;&#9;&#9;&#9;&#9;c0.8,0.4,0.7,1.2-0.2,1.7l-9.4,5.5C625.2,497.7,623.8,497.8,623.1,497.3z" style="fill: rgb(44, 38, 97);"/>
			<path class="st6" d="M637.8,505.8l-9.5-5.5c-0.8-0.4-0.7-1.2,0.2-1.7l9.4-5.5c0.9-0.5,2.2-0.6,3-0.1l9.5,5.5&#10;&#9;&#9;&#9;&#9;c0.8,0.4,0.7,1.2-0.2,1.7l-9.4,5.5C639.9,506.2,638.5,506.2,637.8,505.8z" style="fill: rgb(44, 38, 97);"/>
			<path class="st6" d="M652.5,514.3l-9.5-5.5c-0.8-0.4-0.7-1.2,0.2-1.7l9.4-5.5c0.9-0.5,2.2-0.6,3-0.1l9.5,5.5&#10;&#9;&#9;&#9;&#9;c0.8,0.4,0.7,1.2-0.2,1.7l-9.4,5.5C654.6,514.7,653.3,514.7,652.5,514.3z" style="fill: rgb(44, 38, 97);"/>
			<path class="st6" d="M667.2,522.8l-9.5-5.5c-0.8-0.4-0.7-1.2,0.2-1.7l9.4-5.5c0.9-0.5,2.2-0.6,3-0.1l9.5,5.5&#10;&#9;&#9;&#9;&#9;c0.8,0.4,0.7,1.2-0.2,1.7l-9.4,5.5C669.3,523.2,668,523.2,667.2,522.8z" style="fill: rgb(44, 38, 97);"/>
			<path class="st6" d="M681.9,531.3l-9.5-5.5c-0.8-0.4-0.7-1.2,0.2-1.7l9.4-5.5c0.9-0.5,2.2-0.6,3-0.1l9.5,5.5&#10;&#9;&#9;&#9;&#9;c0.8,0.4,0.7,1.2-0.2,1.7l-9.4,5.5C684,531.7,682.7,531.7,681.9,531.3z" style="fill: rgb(44, 38, 97);"/>
			<path class="st6" d="M696.6,539.8l-9.5-5.5c-0.8-0.4-0.7-1.2,0.2-1.7l9.4-5.5c0.9-0.5,2.2-0.6,3-0.1l9.5,5.5&#10;&#9;&#9;&#9;&#9;c0.8,0.4,0.7,1.2-0.2,1.7l-9.4,5.5C698.7,540.2,697.4,540.2,696.6,539.8z" style="fill: rgb(44, 38, 97);"/>
			<path class="st6" d="M585.9,459.3l-9.5-5.5c-0.8-0.4-0.7-1.2,0.2-1.7l9.4-5.5c0.9-0.5,2.2-0.6,3-0.1l9.5,5.5&#10;&#9;&#9;&#9;&#9;c0.8,0.4,0.7,1.2-0.2,1.7l-9.4,5.5C588,459.7,586.7,459.8,585.9,459.3z" style="fill: rgb(44, 38, 97);"/>
			<path class="st6" d="M571,450.7l-9.5-5.5c-0.8-0.4-0.7-1.2,0.2-1.7l9.4-5.5c0.9-0.5,2.2-0.6,3-0.1l9.5,5.5&#10;&#9;&#9;&#9;&#9;c0.8,0.4,0.7,1.2-0.2,1.7l-9.4,5.5C573.1,451.1,571.8,451.1,571,450.7z" style="fill: rgb(44, 38, 97);"/>
			<path class="st6" d="M556,442.1l-20.5-11.8c-0.8-0.4-0.7-1.2,0.2-1.7l9.4-5.5c0.9-0.5,2.2-0.6,3-0.1l20.5,11.8&#10;&#9;&#9;&#9;&#9;c0.8,0.4,0.7,1.2-0.2,1.7L559,442C558.1,442.5,556.8,442.5,556,442.1z" style="fill: rgb(44, 38, 97);"/>
			<path class="st6" d="M566.5,431.6l-16.7-9.6c-0.8-0.4-0.7-1.2,0.2-1.7l9.4-5.5c0.9-0.5,2.2-0.6,3-0.1l16.7,9.6&#10;&#9;&#9;&#9;&#9;c0.8,0.4,0.7,1.2-0.2,1.7l-9.4,5.5C568.6,432,567.3,432,566.5,431.6z" style="fill: rgb(44, 38, 97);"/>
			<path class="st6" d="M600.6,467.8l-9.5-5.5c-0.8-0.4-0.7-1.2,0.2-1.7l9.4-5.5c0.9-0.5,2.2-0.6,3-0.1l9.5,5.5&#10;&#9;&#9;&#9;&#9;c0.8,0.4,0.7,1.2-0.2,1.7l-9.4,5.5C602.7,468.2,601.4,468.3,600.6,467.8z" style="fill: rgb(44, 38, 97);"/>
			<path class="st6" d="M615.3,476.3l-9.5-5.5c-0.8-0.4-0.7-1.2,0.2-1.7l9.4-5.5c0.9-0.5,2.2-0.6,3-0.1l9.5,5.5&#10;&#9;&#9;&#9;&#9;c0.8,0.4,0.7,1.2-0.2,1.7l-9.4,5.5C617.4,476.7,616.1,476.8,615.3,476.3z" style="fill: rgb(44, 38, 97);"/>
			<path class="st6" d="M630,484.8l-9.5-5.5c-0.8-0.4-0.7-1.2,0.2-1.7l9.4-5.5c0.9-0.5,2.2-0.6,3-0.1l9.5,5.5&#10;&#9;&#9;&#9;&#9;c0.8,0.4,0.7,1.2-0.2,1.7l-9.4,5.5C632.1,485.2,630.8,485.2,630,484.8z" style="fill: rgb(44, 38, 97);"/>
			<path class="st6" d="M644.8,493.3l-9.5-5.5c-0.8-0.4-0.7-1.2,0.2-1.7l9.4-5.5c0.9-0.5,2.2-0.6,3-0.1l9.5,5.5&#10;&#9;&#9;&#9;&#9;c0.8,0.4,0.7,1.2-0.2,1.7l-9.4,5.5C646.8,493.7,645.5,493.7,644.8,493.3z" style="fill: rgb(44, 38, 97);"/>
			<path class="st6" d="M659.5,501.8l-9.5-5.5c-0.8-0.4-0.7-1.2,0.2-1.7l9.4-5.5c0.9-0.5,2.2-0.6,3-0.1l9.5,5.5&#10;&#9;&#9;&#9;&#9;c0.8,0.4,0.7,1.2-0.2,1.7l-9.4,5.5C661.5,502.2,660.2,502.2,659.5,501.8z" style="fill: rgb(44, 38, 97);"/>
			<path class="st6" d="M674.2,510.3l-9.5-5.5c-0.8-0.4-0.7-1.2,0.2-1.7l9.4-5.5c0.9-0.5,2.2-0.6,3-0.1l9.5,5.5&#10;&#9;&#9;&#9;&#9;c0.8,0.4,0.7,1.2-0.2,1.7l-9.4,5.5C676.3,510.7,674.9,510.7,674.2,510.3z" style="fill: rgb(44, 38, 97);"/>
			<path class="st6" d="M688.9,518.8l-9.5-5.5c-0.8-0.4-0.7-1.2,0.2-1.7l9.4-5.5c0.9-0.5,2.2-0.6,3-0.1l9.5,5.5&#10;&#9;&#9;&#9;&#9;c0.8,0.4,0.7,1.2-0.2,1.7l-9.4,5.5C691,519.2,689.6,519.2,688.9,518.8z" style="fill: rgb(44, 38, 97);"/>
			<path class="st6" d="M703.6,527.3l-9.5-5.5c-0.8-0.4-0.7-1.2,0.2-1.7l9.4-5.5c0.9-0.5,2.2-0.6,3-0.1l9.5,5.5&#10;&#9;&#9;&#9;&#9;c0.8,0.4,0.7,1.2-0.2,1.7l-9.4,5.5C705.7,527.6,704.3,527.7,703.6,527.3z" style="fill: rgb(44, 38, 97);"/>
			<path class="st6" d="M718.3,535.8l-9.5-5.5c-0.8-0.4-0.7-1.2,0.2-1.7l9.4-5.5c0.9-0.5,2.2-0.6,3-0.1l9.5,5.5&#10;&#9;&#9;&#9;&#9;c0.8,0.4,0.7,1.2-0.2,1.7l-9.4,5.5C720.4,536.1,719,536.2,718.3,535.8z" style="fill: rgb(44, 38, 97);"/>
			<path class="st6" d="M744.4,550.8l-20.8-12c-0.8-0.4-0.7-1.2,0.2-1.7l9.4-5.5c0.9-0.5,2.2-0.6,3-0.1l20.8,12&#10;&#9;&#9;&#9;&#9;c0.8,0.4,0.7,1.2-0.2,1.7l-9.4,5.5C746.5,551.2,745.2,551.3,744.4,550.8z" style="fill: rgb(44, 38, 97);"/>
			<path class="st6" d="M773.1,534.3l-17.5-10.1c-0.8-0.4-0.7-1.2,0.2-1.7l9.4-5.5c0.9-0.5,2.2-0.6,3-0.1l17.5,10.1&#10;&#9;&#9;&#9;&#9;c0.8,0.4,0.7,1.2-0.2,1.7l-9.4,5.5C775.2,534.7,773.8,534.8,773.1,534.3z" style="fill: rgb(44, 38, 97);"/>
			<path class="st6" d="M626.4,466.1l-9.5-5.5c-0.8-0.4-0.7-1.2,0.2-1.7l9.4-5.5c0.9-0.5,2.2-0.6,3-0.1l9.5,5.5&#10;&#9;&#9;&#9;&#9;c0.8,0.4,0.7,1.2-0.2,1.7l-9.4,5.5C628.5,466.5,627.1,466.6,626.4,466.1z" style="fill: rgb(44, 38, 97);"/>
			<path class="st6" d="M611.3,457.5l-9.5-5.5c-0.8-0.4-0.7-1.2,0.2-1.7l9.4-5.5c0.9-0.5,2.2-0.6,3-0.1l9.5,5.5&#10;&#9;&#9;&#9;&#9;c0.8,0.4,0.7,1.2-0.2,1.7l-9.4,5.5C613.4,457.8,612.1,457.9,611.3,457.5z" style="fill: rgb(44, 38, 97);"/>
			<path class="st6" d="M596.2,448.8l-9.5-5.5c-0.8-0.4-0.7-1.2,0.2-1.7l9.4-5.5c0.9-0.5,2.2-0.6,3-0.1l9.5,5.5&#10;&#9;&#9;&#9;&#9;c0.8,0.4,0.7,1.2-0.2,1.7l-9.4,5.5C598.3,449.1,597,449.2,596.2,448.8z" style="fill: rgb(44, 38, 97);"/>
			<path class="st6" d="M581.2,440l-9.5-5.5c-0.8-0.4-0.7-1.2,0.2-1.7l9.4-5.5c0.9-0.5,2.2-0.6,3-0.1l9.5,5.5&#10;&#9;&#9;&#9;&#9;c0.8,0.4,0.7,1.2-0.2,1.7l-9.4,5.5C583.3,440.4,581.9,440.5,581.2,440z" style="fill: rgb(44, 38, 97);"/>
			<path class="st6" d="M641.1,474.6l-9.5-5.5c-0.8-0.4-0.7-1.2,0.2-1.7l9.4-5.5c0.9-0.5,2.2-0.6,3-0.1l9.5,5.5&#10;&#9;&#9;&#9;&#9;c0.8,0.4,0.7,1.2-0.2,1.7l-9.4,5.5C643.2,475,641.8,475.1,641.1,474.6z" style="fill: rgb(44, 38, 97);"/>
			<path class="st6" d="M655.8,483.1l-9.5-5.5c-0.8-0.4-0.7-1.2,0.2-1.7l9.4-5.5c0.9-0.5,2.2-0.6,3-0.1l9.5,5.5&#10;&#9;&#9;&#9;&#9;c0.8,0.4,0.7,1.2-0.2,1.7l-9.4,5.5C657.9,483.5,656.6,483.6,655.8,483.1z" style="fill: rgb(44, 38, 97);"/>
			<path class="st6" d="M670.5,491.6l-9.5-5.5c-0.8-0.4-0.7-1.2,0.2-1.7l9.4-5.5c0.9-0.5,2.2-0.6,3-0.1l9.5,5.5&#10;&#9;&#9;&#9;&#9;c0.8,0.4,0.7,1.2-0.2,1.7l-9.4,5.5C672.6,492,671.3,492.1,670.5,491.6z" style="fill: rgb(44, 38, 97);"/>
			<path class="st6" d="M685.2,500.1l-9.5-5.5c-0.8-0.4-0.7-1.2,0.2-1.7l9.4-5.5c0.9-0.5,2.2-0.6,3-0.1l9.5,5.5&#10;&#9;&#9;&#9;&#9;c0.8,0.4,0.7,1.2-0.2,1.7l-9.4,5.5C687.3,500.5,686,500.6,685.2,500.1z" style="fill: rgb(44, 38, 97);"/>
			<path class="st6" d="M699.9,508.6l-9.5-5.5c-0.8-0.4-0.7-1.2,0.2-1.7l9.4-5.5c0.9-0.5,2.2-0.6,3-0.1l9.5,5.5&#10;&#9;&#9;&#9;&#9;c0.8,0.4,0.7,1.2-0.2,1.7l-9.4,5.5C702,509,700.7,509,699.9,508.6z" style="fill: rgb(44, 38, 97);"/>
			<path class="st6" d="M714.6,517.1l-9.5-5.5c-0.8-0.4-0.7-1.2,0.2-1.7l9.4-5.5c0.9-0.5,2.2-0.6,3-0.1l9.5,5.5&#10;&#9;&#9;&#9;&#9;c0.8,0.4,0.7,1.2-0.2,1.7l-9.4,5.5C716.7,517.5,715.4,517.5,714.6,517.1z" style="fill: rgb(44, 38, 97);"/>
			<path class="st6" d="M729.3,525.6l-9.5-5.5c-0.8-0.4-0.7-1.2,0.2-1.7l9.4-5.5c0.9-0.5,2.2-0.6,3-0.1l9.5,5.5&#10;&#9;&#9;&#9;&#9;c0.8,0.4,0.7,1.2-0.2,1.7l-9.4,5.5C731.4,526,730.1,526,729.3,525.6z" style="fill: rgb(44, 38, 97);"/>
			<path class="st6" d="M744,534.1l-9.5-5.5c-0.8-0.4-0.7-1.2,0.2-1.7l9.4-5.5c0.9-0.5,2.2-0.6,3-0.1l9.5,5.5&#10;&#9;&#9;&#9;&#9;c0.8,0.4,0.7,1.2-0.2,1.7L747,534C746.1,534.5,744.8,534.5,744,534.1z" style="fill: rgb(44, 38, 97);"/>
			<path class="st6" d="M758.7,542.6l-9.5-5.5c-0.8-0.4-0.7-1.2,0.2-1.7l9.4-5.5c0.9-0.5,2.2-0.6,3-0.1l9.5,5.5&#10;&#9;&#9;&#9;&#9;c0.8,0.4,0.7,1.2-0.2,1.7l-9.4,5.5C760.8,543,759.5,543,758.7,542.6z" style="fill: rgb(44, 38, 97);"/>
			<path class="st6" d="M618.6,445.1l-9.5-5.5c-0.8-0.4-0.7-1.2,0.2-1.7l9.4-5.5c0.9-0.5,2.2-0.6,3-0.1l9.5,5.5&#10;&#9;&#9;&#9;&#9;c0.8,0.4,0.7,1.2-0.2,1.7l-9.4,5.5C620.7,445.5,619.4,445.6,618.6,445.1z" style="fill: rgb(44, 38, 97);"/>
			<path class="st6" d="M604,436.7l-9.5-5.5c-0.8-0.4-0.7-1.2,0.2-1.7l9.4-5.5c0.9-0.5,2.2-0.6,3-0.1l9.5,5.5&#10;&#9;&#9;&#9;&#9;c0.8,0.4,0.7,1.2-0.2,1.7l-9.4,5.5C606.1,437.1,604.8,437.1,604,436.7z" style="fill: rgb(44, 38, 97);"/>
			<path class="st6" d="M589.4,428.3l-9.5-5.5c-0.8-0.4-0.7-1.2,0.2-1.7l9.4-5.5c0.9-0.5,2.2-0.6,3-0.1l9.5,5.5&#10;&#9;&#9;&#9;&#9;c0.8,0.4,0.7,1.2-0.2,1.7l-9.4,5.5C591.5,428.6,590.1,428.7,589.4,428.3z" style="fill: rgb(44, 38, 97);"/>
			<path class="st6" d="M574.7,419.8l-9.5-5.5c-0.8-0.4-0.7-1.2,0.2-1.7l9.4-5.5c0.9-0.5,2.2-0.6,3-0.1l9.5,5.5&#10;&#9;&#9;&#9;&#9;c0.8,0.4,0.7,1.2-0.2,1.7l-9.4,5.5C576.8,420.2,575.5,420.3,574.7,419.8z" style="fill: rgb(44, 38, 97);"/>
			<path class="st6" d="M589.8,411.1l-9.5-5.5c-0.8-0.4-0.7-1.2,0.2-1.7l3.1-1.8c0.9-0.5,2.2-0.6,3-0.1l9.5,5.5&#10;&#9;&#9;&#9;&#9;c0.8,0.4,0.7,1.2-0.2,1.7l-3.1,1.8C591.9,411.5,590.5,411.6,589.8,411.1z" style="fill: rgb(44, 38, 97);"/>
			<path class="st6" d="M608.9,422.1l-9.5-5.5c-0.8-0.4-0.7-1.2,0.2-1.7l3.1-1.8c0.9-0.5,2.2-0.6,3-0.1l9.5,5.5&#10;&#9;&#9;&#9;&#9;c0.8,0.4,0.7,1.2-0.2,1.7l-3.1,1.8C611,422.5,609.6,422.6,608.9,422.1z" style="fill: rgb(44, 38, 97);"/>
			<path class="st6" d="M623.5,430.6l-9.5-5.5c-0.8-0.4-0.7-1.2,0.2-1.7l3.1-1.8c0.9-0.5,2.2-0.6,3-0.1l9.5,5.5&#10;&#9;&#9;&#9;&#9;c0.8,0.4,0.7,1.2-0.2,1.7l-3.1,1.8C625.5,430.9,624.2,431,623.5,430.6z" style="fill: rgb(44, 38, 97);"/>
			<path class="st6" d="M638,439l-9.5-5.5c-0.8-0.4-0.7-1.2,0.2-1.7l3.1-1.8c0.9-0.5,2.2-0.6,3-0.1l9.5,5.5c0.8,0.4,0.7,1.2-0.2,1.7&#10;&#9;&#9;&#9;&#9;l-3.1,1.8C640.1,439.4,638.8,439.4,638,439z" style="fill: rgb(44, 38, 97);"/>
			<path class="st6" d="M652.6,447.4l-9.5-5.5c-0.8-0.4-0.7-1.2,0.2-1.7l3.1-1.8c0.9-0.5,2.2-0.6,3-0.1l9.5,5.5&#10;&#9;&#9;&#9;&#9;c0.8,0.4,0.7,1.2-0.2,1.7l-3.1,1.8C654.7,447.8,653.4,447.8,652.6,447.4z" style="fill: rgb(44, 38, 97);"/>
			<path class="st6" d="M734,494.4l-9.5-5.5c-0.8-0.4-0.7-1.2,0.2-1.7l3.1-1.8c0.9-0.5,2.2-0.6,3-0.1l9.5,5.5&#10;&#9;&#9;&#9;&#9;c0.8,0.4,0.7,1.2-0.2,1.7l-3.1,1.8C736.1,494.7,734.7,494.8,734,494.4z" style="fill: rgb(44, 38, 97);"/>
			<path class="st6" d="M748.5,502.8l-9.5-5.5c-0.8-0.4-0.7-1.2,0.2-1.7l3.1-1.8c0.9-0.5,2.2-0.6,3-0.1l9.5,5.5&#10;&#9;&#9;&#9;&#9;c0.8,0.4,0.7,1.2-0.2,1.7l-3.1,1.8C750.6,503.2,749.3,503.2,748.5,502.8z" style="fill: rgb(44, 38, 97);"/>
			<path class="st6" d="M763.1,511.2l-9.5-5.5c-0.8-0.4-0.7-1.2,0.2-1.7l3.1-1.8c0.9-0.5,2.2-0.6,3-0.1l9.5,5.5&#10;&#9;&#9;&#9;&#9;c0.8,0.4,0.7,1.2-0.2,1.7l-3.1,1.8C765.2,511.6,763.9,511.6,763.1,511.2z" style="fill: rgb(44, 38, 97);"/>
			<path class="st6" d="M777.7,519.6l-9.5-5.5c-0.8-0.4-0.7-1.2,0.2-1.7l3.1-1.8c0.9-0.5,2.2-0.6,3-0.1l9.5,5.5&#10;&#9;&#9;&#9;&#9;c0.8,0.4,0.7,1.2-0.2,1.7l-3.1,1.8C779.8,520,778.4,520,777.7,519.6z" style="fill: rgb(44, 38, 97);"/>
			<path class="st6" d="M633.3,453.6l-9.5-5.5c-0.8-0.4-0.7-1.2,0.2-1.7l9.4-5.5c0.9-0.5,2.2-0.6,3-0.1l9.5,5.5&#10;&#9;&#9;&#9;&#9;c0.8,0.4,0.7,1.2-0.2,1.7l-9.4,5.5C635.4,454,634.1,454.1,633.3,453.6z" style="fill: rgb(44, 38, 97);"/>
			<path class="st6" d="M648,462.1l-9.5-5.5c-0.8-0.4-0.7-1.2,0.2-1.7l9.4-5.5c0.9-0.5,2.2-0.6,3-0.1l9.5,5.5&#10;&#9;&#9;&#9;&#9;c0.8,0.4,0.7,1.2-0.2,1.7L651,462C650.2,462.5,648.8,462.6,648,462.1z" style="fill: rgb(44, 38, 97);"/>
			<path class="st6" d="M662.8,470.6l-9.5-5.5c-0.8-0.4-0.7-1.2,0.2-1.7l9.4-5.5c0.9-0.5,2.2-0.6,3-0.1l9.5,5.5&#10;&#9;&#9;&#9;&#9;c0.8,0.4,0.7,1.2-0.2,1.7l-9.4,5.5C664.9,471,663.5,471.1,662.8,470.6z" style="fill: rgb(44, 38, 97);"/>
			<path class="st6" d="M677.5,479.1l-9.5-5.5c-0.8-0.4-0.7-1.2,0.2-1.7l9.4-5.5c0.9-0.5,2.2-0.6,3-0.1l9.5,5.5&#10;&#9;&#9;&#9;&#9;c0.8,0.4,0.7,1.2-0.2,1.7l-9.4,5.5C679.6,479.5,678.2,479.6,677.5,479.1z" style="fill: rgb(44, 38, 97);"/>
			<path class="st6" d="M692.2,487.6l-9.5-5.5c-0.8-0.4-0.7-1.2,0.2-1.7l9.4-5.5c0.9-0.5,2.2-0.6,3-0.1l9.5,5.5&#10;&#9;&#9;&#9;&#9;c0.8,0.4,0.7,1.2-0.2,1.7l-9.4,5.5C694.3,488,692.9,488,692.2,487.6z" style="fill: rgb(44, 38, 97);"/>
			<path class="st6" d="M706.9,496.1l-9.5-5.5c-0.8-0.4-0.7-1.2,0.2-1.7l9.4-5.5c0.9-0.5,2.2-0.6,3-0.1l9.5,5.5&#10;&#9;&#9;&#9;&#9;c0.8,0.4,0.7,1.2-0.2,1.7l-9.4,5.5C709,496.5,707.6,496.5,706.9,496.1z" style="fill: rgb(44, 38, 97);"/>
			<path class="st6" d="M721.6,504.6l-9.5-5.5c-0.8-0.4-0.7-1.2,0.2-1.7l9.4-5.5c0.9-0.5,2.2-0.6,3-0.1l9.5,5.5&#10;&#9;&#9;&#9;&#9;c0.8,0.4,0.7,1.2-0.2,1.7l-9.4,5.5C723.7,505,722.3,505,721.6,504.6z" style="fill: rgb(44, 38, 97);"/>
			<path class="st6" d="M736.3,513.1l-9.5-5.5c-0.8-0.4-0.7-1.2,0.2-1.7l9.4-5.5c0.9-0.5,2.2-0.6,3-0.1l9.5,5.5&#10;&#9;&#9;&#9;&#9;c0.8,0.4,0.7,1.2-0.2,1.7l-9.4,5.5C738.4,513.5,737.1,513.5,736.3,513.1z" style="fill: rgb(44, 38, 97);"/>
			<path class="st6" d="M751,521.6l-9.5-5.5c-0.8-0.4-0.7-1.2,0.2-1.7l9.4-5.5c0.9-0.5,2.2-0.6,3-0.1l9.5,5.5&#10;&#9;&#9;&#9;&#9;c0.8,0.4,0.7,1.2-0.2,1.7l-9.4,5.5C753.1,522,751.8,522,751,521.6z" style="fill: rgb(44, 38, 97);"/>
			<path class="st6" d="M549.3,454.7l-28-16.2c-0.8-0.4-0.7-1.2,0.2-1.7l9.4-5.5c0.9-0.5,2.2-0.6,3-0.1l28,16.2&#10;&#9;&#9;&#9;&#9;c0.8,0.4,0.7,1.2-0.2,1.7l-9.4,5.5C551.4,455.1,550,455.1,549.3,454.7z" style="fill: rgb(44, 38, 97);"/>
			<path class="st6" d="M729.9,559l-28-16.2c-0.8-0.4-0.7-1.2,0.2-1.7l9.4-5.5c0.9-0.5,2.2-0.6,3-0.1l28,16.2&#10;&#9;&#9;&#9;&#9;c0.8,0.4,0.7,1.2-0.2,1.7l-9.4,5.5C732,559.4,730.7,559.5,729.9,559z" style="fill: rgb(44, 38, 97);"/>
			<path class="st6" d="M671.1,543.8l-9.5-5.5c-0.8-0.4-0.7-1.2,0.2-1.7l11.2-6.5c0.9-0.5,2.2-0.6,3-0.1l9.5,5.5&#10;&#9;&#9;&#9;&#9;c0.8,0.4,0.7,1.2-0.2,1.7l-11.2,6.5C673.2,544.2,671.9,544.3,671.1,543.8z" style="fill: rgb(44, 38, 97);"/>
			<path class="st6" d="M564.3,482.1l-15.2-8.8c-0.8-0.4-0.7-1.2,0.2-1.7l11.2-6.5c0.9-0.5,2.2-0.6,3-0.1l15.2,8.8&#10;&#9;&#9;&#9;&#9;c0.8,0.4,0.7,1.2-0.2,1.7l-11.2,6.5C566.4,482.5,565.1,482.6,564.3,482.1z" style="fill: rgb(44, 38, 97);"/>
			<path class="st6" d="M657,535.6l-15.2-8.8c-0.8-0.4-0.7-1.2,0.2-1.7l11.2-6.5c0.9-0.5,2.2-0.6,3-0.1l15.2,8.8&#10;&#9;&#9;&#9;&#9;c0.8,0.4,0.7,1.2-0.2,1.7l-11.2,6.5C659,536,657.7,536.1,657,535.6z" style="fill: rgb(44, 38, 97);"/>
			<path class="st6" d="M585.5,494.4l-15.2-8.8c-0.8-0.4-0.7-1.2,0.2-1.7l11.2-6.5c0.9-0.5,2.2-0.6,3-0.1l15.2,8.8&#10;&#9;&#9;&#9;&#9;c0.8,0.4,0.7,1.2-0.2,1.7l-11.2,6.5C587.6,494.8,586.3,494.8,585.5,494.4z" style="fill: rgb(44, 38, 97);"/>
			<path class="st6" d="M584.8,477.3l66.2,38.2c0.8,0.5,0.8,1.2,0,1.7l-11.5,6.6c-0.8,0.5-2.2,0.5-3,0l-66.2-38.2L584.8,477.3z" style="fill: rgb(44, 38, 97);"/>
			<path class="st6" d="M712.2,559.2l10.6,6.1c0.6,0.4,0.5,1-0.2,1.4l-4.6,2.7c-0.7,0.4-1.8,0.5-2.5,0.1l-10.6-6.1&#10;&#9;&#9;&#9;&#9;c-0.6-0.4-0.5-1,0.2-1.4l4.6-2.7C710.5,558.9,711.6,558.8,712.2,559.2z" style="fill: rgb(44, 38, 97);"/>
			<path class="st6" d="M697.4,550.6l10.6,6.1c0.6,0.4,0.5,1-0.2,1.4l-4.6,2.7c-0.7,0.4-1.8,0.5-2.5,0.1l-10.6-6.1&#10;&#9;&#9;&#9;&#9;c-0.6-0.4-0.5-1,0.2-1.4l4.6-2.7C695.7,550.3,696.8,550.3,697.4,550.6z" style="fill: rgb(44, 38, 97);"/>
			<path class="st6" d="M682.7,542.2l10.6,6.1c0.6,0.4,0.5,1-0.2,1.4l-4.6,2.7c-0.7,0.4-1.8,0.5-2.5,0.1l-10.6-6.1&#10;&#9;&#9;&#9;&#9;c-0.6-0.4-0.5-1,0.2-1.4l4.6-2.7C681,541.8,682.1,541.8,682.7,542.2z" style="fill: rgb(44, 38, 97);"/>
			<path class="st6" d="M705.5,546l10.6,6.1c0.6,0.4,0.5,1-0.2,1.4l-4.6,2.7c-0.7,0.4-1.8,0.5-2.5,0.1l-10.6-6.1&#10;&#9;&#9;&#9;&#9;c-0.6-0.4-0.5-1,0.2-1.4l4.6-2.7C703.8,545.6,704.9,545.6,705.5,546z" style="fill: rgb(44, 38, 97);"/>
		</g>
	</g>
	<g>
		<path class="st18" d="M855.6,317.1c-0.7,0-1.5-0.2-2.2-0.6c-2.3-1.3-3.6-4.2-3.1-6.6c0.3-1.1,0.9-2,1.9-2.4c1-0.5,2.3-0.3,3.5,0.4&#10;&#9;&#9;&#9;c2.3,1.3,3.6,4.3,3.1,6.6c-0.3,1.1-0.9,2-1.9,2.4C856.5,317,856,317.1,855.6,317.1z M853.4,308.3c-0.3,0-0.6,0.1-0.9,0.2&#10;&#9;&#9;&#9;c-0.6,0.3-1.1,0.9-1.3,1.7c-0.4,1.9,0.7,4.4,2.6,5.5c0.9,0.5,1.9,0.6,2.6,0.3c0.6-0.3,1.1-0.9,1.3-1.7c0.4-1.9-0.7-4.4-2.6-5.5&#10;&#9;&#9;&#9;C854.5,308.5,854,308.3,853.4,308.3z" style="fill: rgb(108, 195, 202);"/>
		<path class="st18" d="M867.7,324.1c-0.7,0-1.5-0.2-2.2-0.6c-2.3-1.3-3.6-4.2-3.1-6.6c0.3-1.1,0.9-2,1.9-2.4c1-0.5,2.3-0.3,3.5,0.4&#10;&#9;&#9;&#9;c2.3,1.3,3.6,4.3,3.1,6.6c-0.3,1.1-0.9,2-1.9,2.4C868.6,324,868.2,324.1,867.7,324.1z M865.5,315.3c-0.3,0-0.6,0.1-0.9,0.2&#10;&#9;&#9;&#9;c-0.6,0.3-1.1,0.9-1.3,1.7c-0.4,1.9,0.7,4.4,2.6,5.5c0.9,0.5,1.9,0.6,2.6,0.3c0.6-0.3,1.1-0.9,1.3-1.7c0.4-1.9-0.7-4.4-2.6-5.5&#10;&#9;&#9;&#9;C866.7,315.5,866.1,315.3,865.5,315.3z" style="fill: rgb(108, 195, 202);"/>
		<path class="st18" d="M882.5,328.4c-0.5,2.1-2.6,2.9-4.6,1.7c-2.1-1.2-3.4-3.9-2.9-6s2.6-2.9,4.6-1.7&#10;&#9;&#9;&#9;C881.7,323.6,883,326.3,882.5,328.4z" style="fill: rgb(108, 195, 202);"/>
	</g>
	<path d="M 650 194.60000610351562 L 643.5 190.8000030517578 L 644 187.8000030517578 L 650.5 191.60000610351562 Z" class="st18" style="fill: rgb(108, 195, 202);"/>
	<path d="M 659.4000244140625 200 L 652.9000244140625 196.3000030517578 L 653.4000244140625 193.3000030517578 L 659.9000244140625 197 Z" class="st18" style="fill: rgb(108, 195, 202);"/>
	<path d="M 640.7000122070312 189.1999969482422 L 626.4000244140625 181 L 626.9000244140625 178 L 641.2000122070312 186.1999969482422 Z" class="st18" style="fill: rgb(108, 195, 202);"/>
</g><g>
	<path d="M 640 235.89999389648438 L 629.0999755859375 229.60000610351562 L 629.5 227.10000610351562 L 640.4000244140625 233.39999389648438 Z" class="st18" style="fill: rgb(108, 195, 202);"/>
	<path d="M 649.2000122070312 241.3000030517578 L 643.7999877929688 238.10000610351562 L 644.2000122070312 235.60000610351562 L 649.7000122070312 238.6999969482422 Z" class="st18" style="fill: rgb(108, 195, 202);"/>
	<path d="M 642.2000122070312 243.60000610351562 L 637.5999755859375 241 L 638 238.5 L 642.5999755859375 241.10000610351562 Z" class="st18" style="fill: rgb(108, 195, 202);"/>
	<path d="M 649.9000244140625 248.10000610351562 L 644.5 245 L 644.9000244140625 242.5 L 650.4000244140625 245.60000610351562 Z" class="st18" style="fill: rgb(108, 195, 202);"/>
	<path d="M 657.9000244140625 259.20001220703125 L 636.5999755859375 246.89999389648438 L 637 244.3000030517578 L 658.2999877929688 256.6000061035156 Z" class="st18" style="fill: rgb(108, 195, 202);"/>
	<path d="M 639.4000244140625 308.3999938964844 L 618.0999755859375 296.1000061035156 L 618.5 293.6000061035156 L 639.7999877929688 305.8999938964844 Z" class="st18" style="fill: rgb(108, 195, 202);"/>
	<path d="M 647.5999755859375 313.1000061035156 L 642.2000122070312 310 L 642.5999755859375 307.5 L 648 310.6000061035156 Z" class="st18" style="fill: rgb(108, 195, 202);"/>
	<path d="M 640.2000122070312 255.39999389648438 L 635.5999755859375 252.6999969482422 L 636 250.1999969482422 L 640.5999755859375 252.89999389648438 Z" class="st18" style="fill: rgb(108, 195, 202);"/>
	<path d="M 648 259.8999938964844 L 642.5 256.70001220703125 L 643 254.1999969482422 L 648.4000244140625 257.3999938964844 Z" class="st18" style="fill: rgb(108, 195, 202);"/>
	<path d="M 646.2999877929688 265.3999938964844 L 634.5999755859375 258.6000061035156 L 635 256.1000061035156 L 646.7999877929688 262.8999938964844 Z" class="st18" style="fill: rgb(108, 195, 202);"/>
	<path d="M 654.2000122070312 269.8999938964844 L 648.7999877929688 266.79998779296875 L 649.2000122070312 264.29998779296875 L 654.5999755859375 267.3999938964844 Z" class="st18" style="fill: rgb(108, 195, 202);"/>
	<path d="M 662.0999755859375 274.5 L 656.5999755859375 271.29998779296875 L 657.0999755859375 268.79998779296875 L 662.5 272 Z" class="st18" style="fill: rgb(108, 195, 202);"/>
	<path d="M 674.7999877929688 281.79998779296875 L 664.5 275.8999938964844 L 665 273.3999938964844 L 675.2000122070312 279.29998779296875 Z" class="st18" style="fill: rgb(108, 195, 202);"/>
	<path d="M 666.7000122070312 290 L 661.2999877929688 286.8999938964844 L 661.7000122070312 284.3999938964844 L 667.0999755859375 287.5 Z" class="st18" style="fill: rgb(108, 195, 202);"/>
	<path d="M 679.4000244140625 297.3999938964844 L 669.0999755859375 291.5 L 669.5999755859375 289 L 679.7999877929688 294.8999938964844 Z" class="st18" style="fill: rgb(108, 195, 202);"/>
	<path d="M 638.0999755859375 273.5 L 632.5999755859375 270.3999938964844 L 633 267.8999938964844 L 638.5 271 Z" class="st18" style="fill: rgb(108, 195, 202);"/>
	<path d="M 646 278.1000061035156 L 640.5 274.8999938964844 L 640.9000244140625 272.3999938964844 L 646.4000244140625 275.6000061035156 Z" class="st18" style="fill: rgb(108, 195, 202);"/>
	<path d="M 658.7000122070312 285.3999938964844 L 648.4000244140625 279.5 L 648.7999877929688 277 L 659.0999755859375 282.8999938964844 Z" class="st18" style="fill: rgb(108, 195, 202);"/>
	<path d="M 675.4000244140625 288.6000061035156 L 669.9000244140625 285.5 L 670.4000244140625 283 L 675.7999877929688 286.1000061035156 Z" class="st18" style="fill: rgb(108, 195, 202);"/>
	<path d="M 683.2999877929688 293.20001220703125 L 677.7999877929688 290 L 678.2999877929688 287.5 L 683.7000122070312 290.6000061035156 Z" class="st18" style="fill: rgb(108, 195, 202);"/>
	<path d="M 696 300.5 L 685.7000122070312 294.6000061035156 L 686.0999755859375 292.1000061035156 L 696.4000244140625 298 Z" class="st18" style="fill: rgb(108, 195, 202);"/>
	<path d="M 656.0999755859375 318 L 650.7000122070312 314.8999938964844 L 651.0999755859375 312.3999938964844 L 656.5 315.5 Z" class="st18" style="fill: rgb(108, 195, 202);"/>
	<path d="M 668.7999877929688 325.3999938964844 L 658.5999755859375 319.5 L 659 317 L 669.2999877929688 322.8999938964844 Z" class="st18" style="fill: rgb(108, 195, 202);"/>
	<path d="M 636.0999755859375 285.29998779296875 L 630.7000122070312 282.1000061035156 L 631.0999755859375 279.6000061035156 L 636.5 282.79998779296875 Z" class="st18" style="fill: rgb(108, 195, 202);"/>
	<path d="M 648.7999877929688 292.6000061035156 L 638.5 286.70001220703125 L 639 284.20001220703125 L 649.2000122070312 290.1000061035156 Z" class="st18" style="fill: rgb(108, 195, 202);"/>
	<path d="M 662 327.8999938964844 L 656.5999755859375 324.79998779296875 L 657 322.29998779296875 L 662.4000244140625 325.3999938964844 Z" class="st18" style="fill: rgb(108, 195, 202);"/>
	<path d="M 674.7999877929688 335.29998779296875 L 664.5 329.29998779296875 L 664.9000244140625 326.79998779296875 L 675.2000122070312 332.79998779296875 Z" class="st18" style="fill: rgb(108, 195, 202);"/>
	<path d="M 674.0999755859375 268.5 L 668.7000122070312 265.3999938964844 L 669.0999755859375 262.8999938964844 L 674.5 266 Z" class="st18" style="fill: rgb(108, 195, 202);"/>
	<path d="M 665.9000244140625 263.79998779296875 L 660.5 260.70001220703125 L 660.9000244140625 258.1000061035156 L 666.2999877929688 261.29998779296875 Z" class="st18" style="fill: rgb(108, 195, 202);"/>
	<path d="M 686.9000244140625 275.8999938964844 L 676.5999755859375 270 L 677 267.3999938964844 L 687.2999877929688 273.3999938964844 Z" class="st18" style="fill: rgb(108, 195, 202);"/>
	<path d="M 638.5 267.29998779296875 L 633.5999755859375 264.5 L 634 262 L 638.9000244140625 264.79998779296875 Z" class="st18" style="fill: rgb(108, 195, 202);"/>
	<path d="M 653 275.70001220703125 L 641.0999755859375 268.79998779296875 L 641.5 266.29998779296875 L 653.5 273.20001220703125 Z" class="st18" style="fill: rgb(108, 195, 202);"/>
	<path d="M 667.5999755859375 284.1000061035156 L 655.7000122070312 277.20001220703125 L 656.0999755859375 274.70001220703125 L 668 281.6000061035156 Z" class="st18" style="fill: rgb(108, 195, 202);"/>
	<path d="M 694.4000244140625 280.20001220703125 L 689.5 277.3999938964844 L 689.9000244140625 274.8999938964844 L 694.7999877929688 277.70001220703125 Z" class="st18" style="fill: rgb(108, 195, 202);"/>
	<path d="M 708.9000244140625 288.6000061035156 L 697 281.79998779296875 L 697.5 279.20001220703125 L 709.2999877929688 286.1000061035156 Z" class="st18" style="fill: rgb(108, 195, 202);"/>
	<path d="M 723.5 297 L 711.5 290.1000061035156 L 712 287.6000061035156 L 723.9000244140625 294.5 Z" class="st18" style="fill: rgb(108, 195, 202);"/>
	<path d="M 643.7000122070312 283.20001220703125 L 631.7999877929688 276.29998779296875 L 632.2000122070312 273.79998779296875 L 644.0999755859375 280.70001220703125 Z" class="st18" style="fill: rgb(108, 195, 202);"/>
	<path d="M 649.9000244140625 286.79998779296875 L 646.2999877929688 284.70001220703125 L 646.7000122070312 282.20001220703125 L 650.2999877929688 284.29998779296875 Z" class="st18" style="fill: rgb(108, 195, 202);"/>
	<path d="M 656.2000122070312 290.5 L 652.5999755859375 288.29998779296875 L 653 285.79998779296875 L 656.5999755859375 287.8999938964844 Z" class="st18" style="fill: rgb(108, 195, 202);"/>
	<path d="M 667.7999877929688 297.20001220703125 L 658.7999877929688 292 L 659.2999877929688 289.5 L 668.2999877929688 294.6000061035156 Z" class="st18" style="fill: rgb(108, 195, 202);"/>
	<path d="M 680.9000244140625 285.29998779296875 L 677.2000122070312 283.20001220703125 L 677.5999755859375 280.70001220703125 L 681.2999877929688 282.79998779296875 Z" class="st18" style="fill: rgb(108, 195, 202);"/>
	<path d="M 692.5 292 L 683.5 286.8999938964844 L 683.9000244140625 284.29998779296875 L 692.9000244140625 289.5 Z" class="st18" style="fill: rgb(108, 195, 202);"/>
	<path d="M 694.9000244140625 293.5 L 686 288.29998779296875 L 686.4000244140625 285.79998779296875 L 695.4000244140625 290.8999938964844 Z" class="st18" style="fill: rgb(108, 195, 202);"/>
	<path d="M 647.0999755859375 325.70001220703125 L 635.2999877929688 319 L 635.7999877929688 316.5 L 647.5 323.20001220703125 Z" class="st18" style="fill: rgb(108, 195, 202);"/>
	<path d="M 654.9000244140625 330.29998779296875 L 649.5 327.1000061035156 L 649.9000244140625 324.6000061035156 L 655.2999877929688 327.79998779296875 Z" class="st18" style="fill: rgb(108, 195, 202);"/>
	<path d="M 662.7999877929688 334.79998779296875 L 657.4000244140625 331.70001220703125 L 657.7999877929688 329.20001220703125 L 663.2000122070312 332.29998779296875 Z" class="st18" style="fill: rgb(108, 195, 202);"/>
	<path d="M 675.5 342.20001220703125 L 665.2999877929688 336.20001220703125 L 665.7000122070312 333.70001220703125 L 676 339.70001220703125 Z" class="st18" style="fill: rgb(108, 195, 202);"/>
	<path d="M 683.7000122070312 346.8999938964844 L 678.2999877929688 343.70001220703125 L 678.7000122070312 341.20001220703125 L 684.0999755859375 344.3999938964844 Z" class="st18" style="fill: rgb(108, 195, 202);"/>
	<path d="M 696.4000244140625 354.20001220703125 L 686.0999755859375 348.29998779296875 L 686.5999755859375 345.79998779296875 L 696.7999877929688 351.70001220703125 Z" class="st18" style="fill: rgb(108, 195, 202);"/>
	<path d="M 657.2999877929688 344.6000061035156 L 651.9000244140625 341.5 L 652.2999877929688 338.8999938964844 L 657.7999877929688 342.1000061035156 Z" class="st18" style="fill: rgb(108, 195, 202);"/>
	<path d="M 670.0999755859375 351.8999938964844 L 659.7999877929688 346 L 660.2000122070312 343.5 L 670.5 349.3999938964844 Z" class="st18" style="fill: rgb(108, 195, 202);"/>
	<path d="M 629 328.20001220703125 L 623.5999755859375 325.1000061035156 L 624 322.6000061035156 L 629.4000244140625 325.70001220703125 Z" class="st18" style="fill: rgb(108, 195, 202);"/>
	<path d="M 636.9000244140625 332.79998779296875 L 631.5 329.6000061035156 L 631.9000244140625 327.1000061035156 L 637.2999877929688 330.29998779296875 Z" class="st18" style="fill: rgb(108, 195, 202);"/>
	<path d="M 649.5999755859375 340.1000061035156 L 639.4000244140625 334.20001220703125 L 639.7999877929688 331.70001220703125 L 650 337.6000061035156 Z" class="st18" style="fill: rgb(108, 195, 202);"/>
	<path d="M 639.2999877929688 327.70001220703125 L 634.2999877929688 324.8999938964844 L 634.7999877929688 322.29998779296875 L 639.7000122070312 325.20001220703125 Z" class="st18" style="fill: rgb(108, 195, 202);"/>
	<path d="M 653.7999877929688 336.1000061035156 L 641.9000244140625 329.20001220703125 L 642.2999877929688 326.70001220703125 L 654.2000122070312 333.5 Z" class="st18" style="fill: rgb(108, 195, 202);"/>
	<path d="M 668.2999877929688 344.3999938964844 L 656.4000244140625 337.6000061035156 L 656.7999877929688 335.1000061035156 L 668.7000122070312 341.8999938964844 Z" class="st18" style="fill: rgb(108, 195, 202);"/>
	<path d="M 625 332.3999938964844 L 613.0999755859375 325.5 L 613.5 323 L 625.4000244140625 329.8999938964844 Z" class="st18" style="fill: rgb(108, 195, 202);"/>
	<path d="M 631.2999877929688 336 L 627.5999755859375 333.8999938964844 L 628 331.3999938964844 L 631.7000122070312 333.5 Z" class="st18" style="fill: rgb(108, 195, 202);"/>
	<path d="M 637.5999755859375 339.6000061035156 L 633.9000244140625 337.5 L 634.2999877929688 335 L 638 337.1000061035156 Z" class="st18" style="fill: rgb(108, 195, 202);"/>
	<path d="M 649.2000122070312 346.29998779296875 L 640.2000122070312 341.1000061035156 L 640.5999755859375 338.6000061035156 L 649.5999755859375 343.79998779296875 Z" class="st18" style="fill: rgb(108, 195, 202);"/>
	<path d="M 651.5999755859375 347.70001220703125 L 642.5999755859375 342.5 L 643.0999755859375 340 L 652 345.20001220703125 Z" class="st18" style="fill: rgb(108, 195, 202);"/>
	<path d="M 630.4000244140625 309.6000061035156 L 626.7000122070312 307.5 L 627.0999755859375 305 L 630.7999877929688 307.1000061035156 Z" class="st18" style="fill: rgb(108, 195, 202);"/>
	<path d="M 642 316.3999938964844 L 633 311.20001220703125 L 633.4000244140625 308.6000061035156 L 642.4000244140625 313.79998779296875 Z" class="st18" style="fill: rgb(108, 195, 202);"/>
	<path d="M 653.9000244140625 323.20001220703125 L 644.9000244140625 318 L 645.2999877929688 315.5 L 654.2999877929688 320.70001220703125 Z" class="st18" style="fill: rgb(108, 195, 202);"/>
	<path d="M 699.5999755859375 362.5 L 694.2000122070312 359.3999938964844 L 694.5999755859375 356.8999938964844 L 700 360 Z" class="st18" style="fill: rgb(108, 195, 202);"/>
	<path d="M 712.4000244140625 369.8999938964844 L 702.0999755859375 364 L 702.5 361.5 L 712.7999877929688 367.3999938964844 Z" class="st18" style="fill: rgb(108, 195, 202);"/>
	<path d="M 679.5999755859375 351 L 670.5999755859375 345.79998779296875 L 671 343.29998779296875 L 680 348.5 Z" class="st18" style="fill: rgb(108, 195, 202);"/>
	<path d="M 691.5 357.79998779296875 L 682.5 352.6000061035156 L 682.9000244140625 350.1000061035156 L 691.9000244140625 355.29998779296875 Z" class="st18" style="fill: rgb(108, 195, 202);"/>
	<path d="M 624 284.79998779296875 L 620.2999877929688 282.6000061035156 L 620.7999877929688 280.1000061035156 L 624.4000244140625 282.29998779296875 Z" class="st18" style="fill: rgb(108, 195, 202);"/>
	<path d="M 635.5999755859375 291.5 L 626.5999755859375 286.29998779296875 L 627 283.79998779296875 L 636 289 Z" class="st18" style="fill: rgb(108, 195, 202);"/>
	<path d="M 647.5 298.29998779296875 L 638.5 293.1000061035156 L 638.9000244140625 290.6000061035156 L 647.9000244140625 295.79998779296875 Z" class="st18" style="fill: rgb(108, 195, 202);"/>
</g><path class="st18" d="M826.9,389.8c-0.8,0-1.7-0.3-2.5-0.7l-72.7-42c-3-1.7-4.9-6-4.3-9.7l4.7-27.7c0.3-1.9,1.3-3.3,2.7-4&#10;&#9;c1.3-0.6,2.8-0.5,4.2,0.4l72.7,42c3,1.7,4.9,6,4.3,9.7l-4.7,27.7c-0.3,1.9-1.3,3.3-2.7,4C828.1,389.7,827.5,389.8,826.9,389.8z&#10;&#9; M756.5,306.4c-0.4,0-0.9,0.1-1.3,0.3c-1.1,0.5-1.8,1.7-2.1,3.2l-4.7,27.7c-0.5,3.2,1.2,7.1,3.8,8.6l72.7,42&#10;&#9;c1.1,0.7,2.3,0.8,3.3,0.3c1.1-0.5,1.8-1.7,2.1-3.2l4.7-27.7c0.5-3.2-1.2-7.1-3.8-8.6l-72.7-42C757.8,306.5,757.1,306.4,756.5,306.4z&#10;&#9;" style="fill: rgb(108, 195, 202);"/><path class="st18" d="M819,437.5c-0.8,0-1.7-0.2-2.5-0.7l-72.7-42c-3-1.7-4.9-6-4.3-9.7l4.7-27.7c0.3-1.9,1.3-3.3,2.7-4&#10;&#9;c1.3-0.6,2.8-0.5,4.2,0.4l72.7,42c3,1.7,4.9,6,4.3,9.7l-4.7,27.7c-0.3,1.9-1.3,3.3-2.7,4C820.1,437.3,819.5,437.5,819,437.5z&#10;&#9; M816.9,435.8c1.1,0.7,2.3,0.8,3.3,0.3c1.1-0.5,1.8-1.7,2.1-3.2l4.7-27.7c0.5-3.2-1.2-7.1-3.8-8.6l-72.7-42&#10;&#9;c-1.1-0.7-2.3-0.8-3.3-0.3c-1.1,0.5-1.8,1.7-2.1,3.2l-4.7,27.7c-0.5,3.2,1.2,7.1,3.8,8.6L816.9,435.8z" style="fill: rgb(108, 195, 202);"/><linearGradient id="SVGID_9_" gradientUnits="userSpaceOnUse" x1="912.275" y1="525.9818" x2="1016.7164" y2="481.3" gradientTransform="matrix(1 0 0 -1 -148.4279 862)">
	<stop offset="0" style="stop-color:#6CC3CA"/>
	<stop offset="0.1" style="stop-color:#5CA1AE"/>
	<stop offset="0.2348" style="stop-color:#4A798E"/>
	<stop offset="0.3742" style="stop-color:#3B5874"/>
	<stop offset="0.5172" style="stop-color:#2F3F5F"/>
	<stop offset="0.6653" style="stop-color:#272D50"/>
	<stop offset="0.8217" style="stop-color:#222248"/>
	<stop offset="1" style="stop-color:#201F45"/>
</linearGradient><path class="st19" d="M758.3,344.1c1.3,0.7,2.4,0.5,2.9-0.7l8.5-23.2c1-2.6,4.9-0.3,5.8,3.5l5.2,23.3c0.4,1.7,1.6,3.4,2.9,4.2&#10;&#9;l1.3,0.7c1.2,0.7,2.3,0.5,2.8-0.5l1.7-3.7c1.1-2.3,4.6-0.1,5.6,3.4l0,0c0.5,1.6,1.6,3.1,2.8,3.9l1.1,0.6c1.3,0.8,2.5,0.5,2.9-0.8&#10;&#9;l1.6-4.8c0.9-2.7,4.9-0.5,5.8,3.3l5.2,21.6c0.4,1.7,1.6,3.4,2.9,4.1L758.3,344.1z" style="opacity: 0.5; fill: url('#SVGID_9_');"/><path class="st18" d="M807.9,426.5c-1.5-0.8-2.7-2.6-3.2-4.4l-5.2-21.6c-0.5-2.3-2.4-4.1-3.7-4.1c-0.5,0-0.9,0.3-1.1,0.9l-1.6,4.8&#10;&#9;c-0.2,0.7-0.7,1.2-1.3,1.4c-0.7,0.3-1.5,0.1-2.4-0.3l-1.1-0.6c-1.4-0.8-2.6-2.4-3.1-4.2c-0.6-2.2-2.3-3.8-3.6-3.9&#10;&#9;c-0.5,0-0.8,0.2-1.1,0.6l-1.7,3.7c-0.3,0.6-0.7,1-1.2,1.1c-0.7,0.2-1.5,0.1-2.3-0.4l-1.3-0.7c-1.5-0.9-2.7-2.7-3.1-4.5l-5.2-23.3&#10;&#9;c-0.5-2.3-2.4-4.1-3.7-4.2c-0.5,0-0.9,0.2-1.1,0.8l-8.5,23.2c-0.2,0.6-0.7,1.1-1.3,1.3c-0.7,0.3-1.5,0.1-2.3-0.4l0.5-0.9&#10;&#9;c0.6,0.3,1.1,0.4,1.5,0.3c0.3-0.1,0.5-0.3,0.6-0.7l8.5-23.2c0.4-1,1.2-1.5,2.1-1.5c1.7,0.1,4,2.1,4.6,5l5.2,23.3&#10;&#9;c0.3,1.6,1.4,3.1,2.7,3.9l1.3,0.7c0.5,0.3,1,0.4,1.4,0.3c0.3-0.1,0.5-0.3,0.6-0.6l1.7-3.7c0.4-0.9,1.2-1.3,2.1-1.2&#10;&#9;c1.8,0.2,3.8,2.2,4.5,4.7c0.4,1.5,1.5,2.9,2.6,3.6l1.1,0.6c0.6,0.3,1.1,0.4,1.5,0.3c0.3-0.1,0.5-0.4,0.7-0.8l1.6-4.8&#10;&#9;c0.3-1,1-1.5,2-1.5c0,0,0.1,0,0.1,0c1.7,0.1,4,2,4.7,4.9l5.2,21.6c0.4,1.5,1.5,3.1,2.7,3.8L807.9,426.5z" style="fill: rgb(108, 195, 202);"/><path class="st18" d="M737.6,284.6c-1.1,0-2.2-0.3-3.2-0.9l-57.5-33.2c-3.5-2.1-5.5-7-4.4-11c0.6-2,1.8-3.5,3.5-4.2&#10;&#9;c1.7-0.7,3.5-0.5,5.3,0.5l57.5,33.2c3.5,2,5.5,7,4.4,11c-0.6,2-1.8,3.5-3.5,4.2C739,284.4,738.3,284.6,737.6,284.6z M678,235.9&#10;&#9;c-0.6,0-1.1,0.1-1.7,0.3c-1.4,0.6-2.4,1.8-2.9,3.5c-1,3.6,0.8,8,3.9,9.9l57.5,33.2c1.5,0.9,3,1,4.3,0.5c1.4-0.6,2.4-1.8,2.9-3.5&#10;&#9;c1-3.6-0.8-8-3.9-9.9l-57.5-33.2C679.8,236.1,678.9,235.9,678,235.9z" style="fill: rgb(108, 195, 202);"/></g></svg>